<?xml version="1.0" standalone="no"?>
<!DOCTYPE svg PUBLIC "-//W3C//DTD SVG 20010904//EN"
 "http://www.w3.org/TR/2001/REC-SVG-20010904/DTD/svg10.dtd">
<svg version="1.0" xmlns="http://www.w3.org/2000/svg"
 width="790.000000pt" height="1153.000000pt" viewBox="0 0 790.000000 1153.000000"
 preserveAspectRatio="xMidYMid meet">
<metadata>
Created by potrace 1.16, written by Peter Selinger 2001-2019
</metadata>
<g transform="translate(0.000000,1153.000000) scale(0.100000,-0.100000)"
fill="#000000" stroke="none">
<path d="M5542 11518 c-7 -7 -12 -18 -12 -24 0 -7 -8 -15 -19 -19 -21 -6 -27
-38 -37 -216 l-7 -116 48 -6 c26 -4 78 -8 114 -9 50 -1 38 -3 -47 -8 -62 -4
-114 -9 -116 -11 -8 -10 -14 -125 -7 -137 4 -7 52 -22 107 -33 54 -11 100 -21
101 -22 4 -4 -14 -178 -19 -183 -3 -2 -37 -1 -77 2 -50 5 -71 11 -71 20 0 17
-47 19 -52 3 -3 -8 -22 -8 -68 0 -101 18 -110 20 -110 35 0 8 -6 16 -13 19
-25 10 -38 -9 -35 -49 3 -38 4 -39 43 -42 48 -3 331 -40 363 -47 19 -5 22 -12
22 -51 0 -33 -4 -46 -17 -51 -37 -14 -43 -43 -9 -43 19 0 24 -5 22 -25 -1 -19
-7 -25 -23 -25 -13 0 -23 -3 -23 -7 -5 -103 -14 -149 -33 -165 -33 -26 -38
-12 -12 34 13 23 21 46 17 52 -3 6 -7 31 -9 55 -7 121 -109 127 -187 11 -26
-37 -28 -47 -19 -71 11 -29 8 -35 -14 -21 -12 8 -35 115 -31 147 2 15 -5 20
-35 26 -46 7 -50 12 -65 65 -15 51 -27 62 -94 80 -75 21 -340 30 -409 14 -59
-14 -110 -36 -121 -54 -4 -5 -12 -50 -19 -99 -10 -74 -16 -91 -31 -95 -12 -3
-18 -11 -15 -21 3 -13 -5 -16 -45 -17 -27 0 -53 -5 -59 -11 -7 -7 -29 0 -72
23 -73 39 -185 79 -195 69 -4 -4 -6 -81 -5 -172 l3 -165 -35 -63 c-38 -68 -43
-111 -25 -233 7 -51 5 -77 -10 -136 -45 -171 -61 -332 -41 -404 15 -52 103
-153 237 -272 136 -121 172 -166 176 -220 2 -29 0 -35 -15 -34 -10 1 -16 -3
-14 -10 5 -15 75 -20 93 -5 8 6 18 26 22 43 5 17 15 31 22 31 18 0 62 -64 58
-84 -5 -24 -105 -67 -188 -81 -177 -29 -371 -111 -455 -193 -80 -78 -100 -161
-71 -297 27 -128 97 -268 171 -344 37 -39 45 -54 51 -99 l7 -52 -33 40 c-40
49 -60 88 -60 114 0 11 -16 33 -36 49 -26 21 -39 43 -49 82 -9 35 -26 66 -49
89 -25 26 -36 47 -38 75 -4 48 -28 67 -59 48 -11 -7 -22 -12 -23 -10 -1 2 -12
28 -25 58 -53 123 -94 202 -108 207 -9 4 -22 -2 -30 -13 -17 -23 -11 -68 23
-167 29 -84 28 -77 5 -77 -11 0 -30 -12 -43 -27 -13 -16 -41 -40 -63 -54 -22
-14 -55 -40 -73 -57 -30 -28 -32 -35 -26 -69 8 -46 50 -109 112 -168 25 -25
53 -59 62 -77 9 -19 32 -42 58 -56 23 -13 42 -30 42 -38 0 -8 22 -37 50 -65
27 -27 64 -74 82 -104 18 -30 51 -84 72 -120 22 -36 61 -86 86 -111 l47 -46
-24 -91 c-14 -53 -28 -146 -34 -219 -5 -69 -22 -193 -39 -275 -27 -133 -30
-166 -29 -321 0 -96 -1 -175 -3 -177 -2 -2 -10 0 -18 5 -12 7 -12 12 -2 22 18
18 15 126 -7 285 -11 76 -22 166 -26 199 -5 49 -12 67 -33 87 -25 23 -36 25
-127 28 -55 1 -107 0 -115 -3 -8 -3 -39 -13 -67 -23 l-53 -17 -38 34 c-21 18
-98 86 -171 152 -129 116 -132 118 -152 100 -11 -10 -18 -23 -17 -29 2 -7 67
-72 146 -145 151 -141 155 -149 81 -155 -16 -1 -35 -8 -44 -15 -8 -7 -23 -10
-34 -7 -10 2 -25 0 -34 -5 -16 -8 -57 23 -324 246 -27 23 -39 27 -52 19 -29
-19 -25 -44 15 -77 21 -17 77 -65 124 -106 47 -41 100 -87 117 -102 30 -24 32
-29 22 -57 -6 -17 -15 -31 -19 -31 -15 0 -29 -57 -17 -69 21 -21 -9 -31 -175
-60 l-167 -29 -86 -62 -86 -62 -197 55 c-108 31 -218 62 -244 70 -53 17 -72 7
-66 -34 2 -18 16 -25 73 -41 39 -10 134 -39 213 -64 128 -40 141 -47 133 -63
-10 -17 -20 -15 -183 30 -95 26 -209 60 -253 74 -74 23 -81 24 -93 8 -23 -32
-15 -52 31 -64 73 -20 268 -79 364 -110 l93 -31 -16 -36 c-9 -20 -18 -42 -21
-48 -3 -8 -18 -5 -46 9 -52 25 -204 34 -292 18 -73 -13 -290 -116 -316 -150
l-20 -24 -101 21 c-85 18 -103 19 -112 8 -9 -12 -24 -11 -91 5 -86 21 -105 20
-105 -10 0 -12 9 -21 28 -25 15 -3 98 -25 184 -48 152 -40 157 -42 152 -65 -4
-13 -2 -23 4 -23 7 0 5 -18 -5 -47 -13 -38 -14 -59 -6 -117 6 -39 7 -74 4 -78
-22 -26 -693 -156 -940 -183 -185 -19 -174 -20 -217 17 l-36 32 -84 -12 -83
-12 -96 62 c-109 72 -103 61 -160 283 -45 174 -42 165 -56 165 -8 0 -10 -11
-5 -32 9 -48 91 -363 98 -374 3 -5 16 -45 28 -89 13 -44 27 -84 32 -89 4 -6 8
-17 8 -25 0 -9 47 -72 105 -141 57 -69 117 -150 134 -180 16 -30 80 -176 141
-325 62 -148 117 -276 123 -283 16 -20 46 -15 294 48 158 40 240 57 247 50 21
-21 50 -16 486 90 96 23 186 43 200 45 14 1 34 5 45 8 11 3 33 8 48 11 16 3
34 9 40 14 10 8 113 34 191 48 12 2 37 7 56 10 19 4 40 10 45 14 14 11 198 50
234 50 32 0 61 30 61 62 0 10 4 18 9 18 5 0 18 3 28 6 17 5 17 5 1 -6 -27 -17
-22 -41 20 -106 53 -81 104 -124 147 -124 65 0 80 18 50 63 -14 22 -14 22 38
19 37 -3 68 3 107 19 46 19 79 23 201 27 l146 4 20 -28 c31 -44 75 -137 128
-269 26 -66 53 -126 60 -133 15 -17 51 -8 404 100 212 65 265 78 272 67 10
-16 129 -340 154 -419 10 -30 36 -95 57 -144 57 -131 122 -408 179 -760 l50
-310 -31 -24 c-23 -18 -30 -30 -26 -46 4 -16 -2 -25 -24 -38 -27 -15 -28 -18
-19 -55 44 -181 100 -605 123 -928 44 -636 45 -984 3 -1194 l-22 -113 -64 -23
c-35 -13 -68 -28 -73 -33 -14 -14 51 -142 98 -188 80 -81 294 -137 394 -104
37 12 39 14 45 71 8 66 11 68 91 48 39 -10 50 -9 80 7 38 21 46 40 64 164 8
50 26 105 55 165 70 147 51 145 206 21 74 -59 141 -105 150 -104 16 3 276 305
387 449 11 14 3 40 -48 160 -113 266 -162 367 -178 374 -12 5 -27 -6 -52 -36
-70 -85 -252 -290 -255 -287 -14 13 -95 279 -95 309 0 26 -7 46 -20 59 -11 11
-20 29 -20 40 0 12 -7 35 -16 51 -20 40 -30 139 -44 455 -6 142 -21 342 -31
444 -46 423 -44 412 -66 429 -11 9 -25 27 -32 39 -6 12 -18 22 -26 22 -8 0
-15 1 -15 3 -1 1 -5 128 -10 282 -10 315 -26 436 -75 601 -44 143 -52 181 -75
339 -20 132 -25 277 -14 372 l7 52 25 -19 c13 -11 32 -20 41 -20 10 -1 38 -46
81 -132 36 -72 103 -194 149 -272 102 -170 159 -295 239 -521 33 -93 94 -251
137 -350 83 -194 98 -260 63 -292 -16 -14 -15 -21 13 -100 17 -47 52 -136 79
-197 26 -61 69 -165 95 -231 27 -66 88 -208 138 -315 212 -462 237 -522 325
-791 110 -335 138 -465 127 -594 -12 -126 -10 -159 11 -202 17 -33 25 -39 64
-45 52 -9 160 6 204 29 56 28 108 76 141 128 27 41 34 65 40 125 6 67 2 92
-34 241 -23 91 -41 176 -41 189 0 13 10 71 21 129 l21 106 -52 155 c-55 162
-97 263 -111 268 -5 2 -9 15 -9 28 0 14 -7 27 -17 31 -25 9 -33 23 -33 60 0
17 -4 34 -8 37 -10 6 -26 64 -77 281 -63 265 -135 505 -206 687 -38 97 -69
181 -69 186 0 15 -62 82 -76 82 -7 0 -17 15 -22 33 -112 392 -154 518 -217
652 -98 208 -191 431 -210 505 -11 44 -55 301 -55 324 0 3 10 6 23 6 13 0 45
11 71 24 44 22 50 23 82 10 51 -21 116 -21 148 0 42 27 29 47 -52 81 l-72 30
6 40 c12 82 70 175 109 175 6 0 19 6 29 13 17 12 17 17 0 97 -9 47 -21 88 -26
91 -4 3 -2 21 6 40 45 107 39 246 -14 332 -17 27 -30 52 -30 57 0 12 54 40 75
40 14 0 15 8 9 57 -12 100 -16 108 -57 111 -32 3 -37 7 -42 35 -31 172 -31
172 -51 175 -29 6 -37 18 -25 40 13 24 -8 52 -37 52 -10 0 -3 9 19 24 30 21
36 30 31 51 -3 17 9 55 37 115 22 48 41 93 41 98 0 21 185 86 435 154 143 38
332 91 420 118 88 27 223 65 300 85 155 41 424 126 498 157 54 23 50 15 72
182 9 66 25 162 36 214 10 52 19 98 19 103 0 15 -98 59 -132 59 -28 0 -36 5
-45 29 -8 23 -21 32 -59 43 l-48 13 47 30 c26 17 47 33 47 38 0 12 -45 8 -91
-9 -24 -9 -66 -15 -93 -15 -30 0 -60 -6 -74 -15 -22 -14 -24 -14 -29 5 -3 12
-11 21 -17 21 -23 0 -127 -72 -122 -85 2 -7 -16 -22 -47 -36 -74 -35 -97 -56
-97 -89 0 -15 -6 -30 -14 -33 -19 -7 -106 -20 -106 -16 -1 2 -9 49 -19 104
-18 98 -18 101 1 127 10 15 26 29 36 31 9 3 60 15 112 27 52 13 101 27 108 33
13 10 10 64 -9 138 -11 43 -25 49 -119 49 l-64 0 52 37 c61 42 56 61 -9 38
-24 -9 -78 -19 -119 -22 -51 -4 -78 -10 -86 -21 -10 -14 -12 -13 -19 7 -6 18
-12 21 -32 16 -42 -10 -115 -65 -109 -81 3 -9 -2 -17 -12 -20 -9 -4 -41 -17
-69 -31 -49 -23 -53 -27 -54 -61 -2 -34 -2 -34 -6 -7 -2 17 -10 35 -17 40 -23
19 -27 47 -9 67 13 15 15 23 7 36 -15 23 -55 26 -150 12 -73 -12 -83 -11 -108
5 -24 16 -28 16 -44 2 -25 -23 -142 -42 -153 -25 -15 22 -10 85 7 99 13 10 14
24 9 68 -3 31 -11 71 -17 89 -15 50 -3 79 42 102 21 11 49 30 61 43 28 29 59
101 59 137 0 24 -5 29 -34 34 -50 10 -82 -1 -167 -56 -73 -46 -102 -57 -113
-40 -7 12 48 66 79 77 18 6 30 18 30 28 0 9 24 33 55 54 30 20 76 53 101 75
l47 38 12 -30 c24 -58 94 -87 154 -64 19 7 21 24 3 24 -34 0 -69 80 -50 114 5
9 43 51 84 94 41 42 88 104 105 137 118 226 100 359 -91 680 l-95 160 0 75 c0
83 -15 197 -31 247 -8 24 -25 40 -72 66 -34 19 -79 40 -100 47 -29 9 -46 24
-68 59 -43 67 -128 172 -161 200 -29 23 -30 24 -66 7 -20 -10 -68 -39 -106
-64 -39 -26 -75 -50 -81 -54 -7 -4 -9 36 -7 114 l3 121 97 -7 c53 -3 176 -15
272 -26 96 -11 191 -21 210 -22 l35 -3 3 54 c4 72 -26 94 -48 35 -8 -21 -16
-24 -57 -24 -27 1 -82 5 -123 11 -41 6 -92 12 -112 14 -20 1 -70 6 -110 9 -40
4 -95 12 -122 19 l-48 11 6 66 c3 36 6 76 6 90 l0 25 105 1 c68 1 110 5 120
14 10 9 15 31 15 71 0 54 -2 60 -28 73 -21 11 -152 36 -189 36 -10 0 5 84 16
88 6 2 11 12 11 21 0 10 9 26 20 36 26 23 25 30 -4 68 -20 26 -26 47 -28 102
-3 64 -5 70 -25 73 -13 2 -23 10 -23 18 0 18 -160 20 -178 2z m967 -1930 c61
-83 108 -258 97 -362 -8 -77 -63 -192 -110 -228 l-34 -27 31 61 c29 55 32 71
36 171 4 129 -12 264 -43 359 -13 38 -19 68 -15 68 4 0 21 -19 38 -42z m-704
-398 c6 -33 2 -39 -70 -110 -70 -69 -74 -72 -55 -35 11 21 20 48 21 60 0 11 3
14 6 8 8 -22 21 -14 32 18 11 31 1 138 -18 204 -25 84 -15 80 29 -10 27 -55
51 -116 55 -135z m16 -231 c-28 -23 -27 -29 7 -29 31 0 54 15 69 43 8 16 14 9
35 -40 48 -109 51 -103 -39 -104 -43 -1 -105 -4 -138 -8 -60 -6 -60 -6 -93
-61 -27 -44 -33 -50 -30 -28 3 32 200 276 207 257 2 -7 -6 -20 -18 -30z m-332
-767 c28 -12 30 -18 36 -89 10 -96 1 -184 -19 -195 -40 -22 -47 -38 -39 -91
10 -67 8 -129 -5 -152 -7 -13 -10 68 -9 276 1 161 3 287 4 279 2 -9 17 -21 32
-28z m45 -529 c3 -10 10 -58 16 -108 10 -78 9 -91 -4 -101 -9 -6 -16 -16 -16
-22 0 -19 -25 -3 -43 27 -9 16 -17 44 -17 63 0 30 24 130 37 151 8 13 21 8 27
-10z m-1624 -1664 c-26 -198 -27 -191 14 -222 20 -16 40 -26 45 -22 9 5 17
-32 23 -110 2 -16 -3 -35 -11 -41 -10 -8 -11 -15 -3 -31 8 -14 8 -23 0 -31
-10 -10 -3 -57 16 -103 5 -12 1 -18 -17 -21 -22 -4 -25 0 -36 53 -6 31 -23 74
-38 95 -15 22 -30 61 -34 89 -5 39 -15 60 -43 90 -20 22 -45 50 -55 62 -11 13
-36 24 -62 28 -40 6 -44 9 -44 36 0 20 5 29 16 29 9 0 30 5 47 11 25 8 34 19
42 49 9 35 14 39 60 50 40 10 50 16 50 32 0 18 30 52 38 43 2 -1 -2 -40 -8
-86z"/>
</g>
</svg>
