<?xml version="1.0" standalone="no"?>
<!DOCTYPE svg PUBLIC "-//W3C//DTD SVG 20010904//EN"
 "http://www.w3.org/TR/2001/REC-SVG-20010904/DTD/svg10.dtd">
<svg version="1.0" xmlns="http://www.w3.org/2000/svg"
 width="1093.000000pt" height="1109.000000pt" viewBox="0 0 1093.000000 1109.000000"
 preserveAspectRatio="xMidYMid meet">
<metadata>
Created by potrace 1.16, written by Peter Selinger 2001-2019
</metadata>
<g transform="translate(0.000000,1109.000000) scale(0.100000,-0.100000)"
fill="#000000" stroke="none">
<path d="M855 10750 c-44 -10 -99 -25 -121 -35 -41 -16 -42 -17 -67 -113 -15
-53 -36 -141 -47 -195 -11 -54 -24 -106 -29 -115 -7 -13 -38 -22 -118 -36
-167 -29 -192 -49 -259 -206 -121 -288 -205 -704 -206 -1021 0 -213 11 -249
133 -442 38 -59 69 -118 69 -130 0 -40 55 -85 125 -101 17 -4 53 -29 80 -56
l50 -49 128 15 c71 7 132 16 135 18 4 2 144 21 312 41 l305 38 95 -46 c127
-61 284 -113 400 -131 65 -11 180 -16 362 -17 242 -1 266 -3 258 -18 -5 -9
-30 -77 -56 -151 -25 -74 -50 -144 -54 -155 -21 -53 -81 -216 -95 -260 -21
-65 -63 -172 -81 -207 -13 -25 -20 -28 -64 -28 -28 0 -49 -3 -49 -7 3 -19 -6
-19 -83 -1 -120 26 -255 33 -383 17 -60 -7 -131 -12 -157 -12 -38 1 -48 -2
-53 -17 -3 -11 -33 -34 -67 -52 -38 -20 -63 -41 -70 -57 -27 -73 -191 -654
-203 -721 -3 -16 -37 -150 -75 -297 -38 -148 -70 -280 -70 -295 0 -15 11 -58
25 -96 14 -38 25 -81 25 -95 0 -17 4 -25 13 -22 7 3 18 -9 26 -27 22 -51 106
-127 234 -211 131 -88 174 -108 342 -165 66 -22 133 -46 149 -53 l28 -13 -6
-73 c-6 -66 -5 -73 14 -83 18 -9 25 -6 54 24 l33 36 41 -17 41 -16 -15 -29
c-12 -24 -19 -28 -37 -22 -12 4 -33 8 -47 8 -24 1 -25 -2 -28 -60 -2 -41 1
-64 10 -71 12 -9 349 -94 426 -107 28 -5 40 1 95 47 87 74 196 212 203 257 3
20 14 46 23 59 l17 23 280 -170 c153 -93 365 -221 469 -284 277 -168 463 -270
487 -266 18 2 30 28 69 143 26 77 62 190 80 250 18 61 33 111 34 112 1 2 52
-24 113 -58 62 -33 168 -85 236 -114 123 -53 206 -93 206 -98 0 -15 -47 -210
-89 -367 -69 -259 -119 -419 -198 -630 -36 -96 -76 -205 -88 -241 -14 -42 -64
-129 -131 -233 -353 -539 -392 -624 -459 -986 -23 -125 -95 -450 -111 -503 -5
-14 -14 -18 -42 -15 -34 3 -38 0 -48 -32 -9 -27 -17 -34 -37 -34 -14 0 -31 5
-39 11 -7 5 -30 8 -50 6 l-38 -5 -1 -52 c-1 -103 -18 -283 -33 -371 -18 -99
-58 -352 -82 -515 l-15 -105 27 -21 27 -22 -16 -68 c-9 -38 -18 -77 -19 -88
-2 -13 -13 -19 -36 -21 -45 -4 -60 -20 -67 -73 -3 -26 -7 -62 -10 -80 -5 -43
22 -72 70 -72 24 0 39 -6 47 -20 7 -11 20 -20 29 -20 11 0 18 -12 23 -39 6
-37 9 -41 63 -61 117 -44 194 -53 398 -48 168 4 195 7 231 26 35 18 43 28 53
66 6 25 11 76 11 114 0 63 -3 74 -31 108 -16 22 -49 68 -72 104 l-42 65 0 185
c0 184 0 186 39 320 21 74 43 140 50 146 6 6 32 19 58 28 47 17 47 18 135 184
102 195 114 220 105 226 -30 17 -157 45 -204 43 -32 0 -63 4 -69 10 -13 13 24
154 72 279 46 120 174 401 256 564 43 85 95 193 116 240 30 67 57 107 127 185
106 119 138 175 179 315 42 141 62 182 187 383 150 240 529 952 603 1132 19
44 38 89 44 100 6 11 12 29 13 40 1 15 88 224 101 244 8 12 13 -14 18 -104 7
-134 12 -168 42 -250 34 -98 58 -132 119 -171 42 -27 55 -42 63 -72 43 -164
105 -443 125 -567 60 -373 61 -383 47 -607 -14 -225 -10 -327 20 -492 21 -112
86 -366 114 -446 34 -95 83 -311 100 -435 10 -71 23 -168 29 -215 l12 -85 -63
-3 c-48 -2 -63 -6 -63 -18 0 -8 12 -67 26 -130 14 -64 24 -117 22 -119 -1 -1
-49 1 -104 6 -56 6 -146 8 -200 7 -95 -3 -98 -4 -104 -28 -11 -39 -21 -643
-12 -658 12 -17 191 -48 335 -57 l117 -7 0 -28 c0 -16 4 -30 9 -32 4 -2 4 -31
-2 -64 l-10 -61 -86 -6 c-123 -7 -121 -5 -121 -93 0 -84 -5 -78 107 -117 126
-44 299 -71 514 -81 14 0 32 -6 40 -12 30 -23 301 -64 434 -66 155 -2 204 9
239 55 41 53 78 147 71 176 -7 28 -42 71 -58 71 -5 0 -37 17 -71 39 -34 21
-86 50 -116 64 -39 19 -68 43 -100 84 -25 31 -79 100 -120 152 l-75 96 -1 100
c-1 55 2 134 6 176 7 69 12 82 53 135 37 49 50 80 79 184 44 156 61 237 53
250 -8 13 -155 13 -155 0 0 -6 -46 -10 -119 -10 l-118 0 -16 82 c-47 247 -86
597 -107 953 -5 99 -17 245 -27 324 -14 125 -15 163 -4 275 7 72 10 147 7 166
-10 70 -20 196 -18 220 18 183 40 382 44 386 8 7 111 -35 123 -50 6 -7 30 -25
53 -40 51 -32 51 -40 -2 -25 -20 6 -49 9 -64 7 -23 -3 -18 -7 33 -26 129 -50
170 -57 370 -57 153 0 203 4 257 18 65 18 73 18 177 2 101 -16 114 -16 156 -1
l46 15 645 -215 c354 -118 652 -214 660 -212 9 2 36 54 68 133 106 263 127
305 150 305 12 0 86 -20 166 -44 266 -81 672 -204 942 -285 146 -45 271 -81
278 -81 15 0 50 78 50 112 0 15 -6 30 -12 35 -13 7 -184 64 -578 191 -102 33
-306 99 -455 147 -148 48 -282 94 -298 102 l-27 14 51 97 c113 212 246 420
343 536 l25 30 63 -16 c143 -35 1075 -278 1089 -283 9 -3 20 0 26 7 13 17 43
137 34 142 -3 2 -31 11 -61 19 -118 31 -995 279 -998 282 -12 11 242 222 437
360 89 64 148 123 134 135 -4 4 -73 17 -153 29 -80 13 -201 31 -270 42 -144
21 -385 65 -615 110 -164 32 -483 115 -499 130 -23 21 33 19 132 -4 148 -36
282 -59 299 -53 7 3 51 -3 96 -14 99 -24 125 -25 165 -4 26 13 30 19 26 42 -6
27 -5 28 36 24 59 -6 73 12 25 32 -21 9 -47 27 -59 40 -14 16 -48 32 -101 46
-44 12 -94 28 -111 35 -17 7 -68 21 -112 31 l-81 17 6 31 c3 17 9 47 14 66 8
32 6 38 -27 71 -22 22 -37 49 -41 73 -7 44 -37 68 -113 90 -98 27 -148 31
-170 11 -12 -11 -29 -16 -45 -12 -15 2 -28 0 -29 -7 -2 -6 -14 -56 -26 -111
-13 -55 -27 -104 -30 -108 -4 -5 -52 1 -106 13 -314 67 -421 92 -436 100 -10
6 -27 10 -38 10 -24 0 -94 35 -140 70 -19 15 -45 31 -58 34 -19 6 -24 3 -33
-23 -7 -19 -17 -30 -26 -29 -8 2 -28 -13 -43 -32 -26 -32 -28 -40 -21 -82 6
-36 17 -57 44 -83 21 -20 41 -33 47 -30 5 3 14 -3 19 -14 6 -11 24 -22 41 -26
43 -9 37 -25 -7 -18 -44 6 -318 70 -658 153 -132 32 -292 71 -356 86 -64 14
-121 29 -127 33 -7 4 -8 26 -3 64 5 38 4 60 -3 66 -6 5 -78 26 -161 46 -125
31 -154 42 -172 64 -25 29 -30 61 -10 61 6 0 29 -5 50 -11 56 -15 95 -3 119
37 19 33 22 34 81 34 66 0 381 26 432 36 17 3 43 0 59 -6 24 -9 36 -7 68 10
21 11 49 20 61 20 12 0 93 15 179 33 144 31 162 37 225 79 l69 45 34 111 c27
85 40 112 55 116 11 4 32 23 46 44 26 39 27 39 165 66 77 15 144 32 150 37 11
9 57 16 437 69 120 16 237 34 260 40 46 11 334 47 892 110 198 23 387 44 420
48 l60 7 -1 50 c0 28 -3 63 -8 79 l-7 29 -87 -7 c-48 -4 -289 -30 -537 -57
-247 -27 -524 -56 -615 -64 -91 -8 -289 -27 -440 -42 -151 -14 -342 -27 -424
-29 -83 -1 -170 -5 -194 -9 l-45 -7 6 29 c4 15 21 115 38 221 21 122 36 192
44 192 6 0 26 20 44 45 35 48 31 47 206 86 55 12 105 26 112 31 6 5 155 33
330 63 175 30 334 59 353 64 43 12 508 84 1007 156 205 29 377 56 383 60 12 7
13 114 1 133 -7 11 -54 8 -257 -18 -301 -38 -876 -114 -1014 -135 -55 -8 -119
-15 -143 -15 -24 0 -182 -18 -352 -41 -170 -22 -319 -38 -330 -35 -12 3 -88
-1 -171 -9 -82 -8 -152 -15 -155 -15 -3 0 -18 28 -33 63 -25 59 -33 68 -119
128 -50 35 -123 83 -162 106 -79 48 -108 51 -298 33 l-99 -10 -56 49 c-32 26
-70 55 -87 63 -16 8 -88 44 -160 80 -71 36 -174 85 -228 108 -54 24 -104 49
-112 56 -7 7 -25 65 -40 128 l-26 115 21 21 c18 18 20 28 15 63 -13 75 -56
191 -80 214 -20 18 -25 35 -31 106 -6 83 -8 86 -38 102 -18 10 -39 30 -49 46
-11 21 -24 29 -44 30 -31 1 -84 28 -91 47 -2 7 7 16 20 21 21 8 18 11 -39 39
-61 31 -65 37 -78 99 -8 42 -30 60 -50 43 -12 -10 -18 -8 -34 11 -23 28 -20
35 16 44 36 9 76 38 90 67 55 109 56 116 50 258 -11 243 -85 377 -230 416
-102 27 -163 17 -347 -56 -77 -31 -119 -41 -212 -50 -131 -14 -352 -9 -529 11
-134 15 -177 7 -232 -40 -19 -16 -49 -30 -72 -34 -22 -3 -155 -23 -295 -46
-680 -107 -769 -121 -782 -116 -8 3 -85 -6 -172 -20 -86 -14 -161 -25 -166
-25 -5 0 5 39 21 87 16 48 28 91 26 96 -1 5 -16 -32 -32 -83 -16 -50 -34 -95
-40 -99 -5 -4 -38 -13 -73 -18 -55 -8 -66 -7 -95 10 l-32 19 18 -20 c19 -20
19 -21 -15 -27 -18 -3 -42 -5 -53 -4 -11 1 -59 1 -106 0 l-86 -2 -94 59 c-52
33 -137 81 -189 108 -82 41 -102 47 -151 46 -80 -2 -506 -40 -624 -56 l-100
-13 -32 26 c-18 14 -33 32 -33 38 0 17 -49 28 -69 16 -23 -14 -26 -51 -6 -73
16 -18 15 -19 -17 -24 -18 -3 -109 -17 -203 -31 -93 -14 -178 -28 -187 -31
-23 -7 -23 0 3 130 29 151 30 150 -71 207 -96 55 -112 57 -235 29z m3863 -362
c7 -7 12 -21 12 -32 0 -35 39 -101 70 -119 l30 -18 -19 -27 c-10 -15 -55 -101
-100 -190 -86 -173 -144 -267 -167 -276 -8 -3 -14 -14 -14 -24 0 -29 -18 -39
-85 -46 -33 -3 -244 -30 -470 -59 -225 -29 -432 -52 -460 -51 -49 1 -50 3
-120 81 -38 44 -111 126 -162 181 -85 93 -91 103 -83 129 53 176 52 175 125
187 132 22 413 79 430 86 11 5 119 27 240 50 121 22 335 62 475 89 289 56 282
55 298 39z m-1568 -296 c0 -19 -90 -227 -99 -230 -6 -2 -19 11 -28 29 -10 17
-35 57 -55 88 l-36 56 60 12 c33 7 68 19 77 27 9 8 27 16 41 19 14 2 28 5 33
6 4 0 7 -3 7 -7z m147 -367 c81 -91 150 -170 151 -175 8 -23 -29 -5 -123 59
-84 57 -108 79 -153 145 -44 65 -52 82 -47 107 4 16 10 29 15 29 5 0 75 -74
157 -165z m2893 -83 c6 -20 19 -55 30 -77 11 -22 31 -68 46 -102 15 -35 31
-63 35 -63 5 0 9 -23 9 -51 0 -72 19 -190 36 -216 7 -11 29 -26 48 -33 38 -12
51 -40 58 -125 l3 -40 -65 -3 -66 -3 -16 53 c-37 116 -108 452 -117 550 -6 58
-15 117 -21 132 -5 15 -6 25 -1 21 5 -3 15 -22 21 -43z m-2512 -294 c-7 -13
-19 -31 -27 -41 -13 -15 -12 -19 4 -31 18 -13 18 -16 3 -52 -9 -22 -24 -62
-33 -91 l-16 -52 -42 26 c-23 14 -59 42 -79 61 -29 29 -36 41 -31 62 4 23 -1
31 -31 49 -20 13 -36 26 -36 30 0 4 44 14 98 24 53 9 115 21 137 26 65 14 67
14 53 -11z m-914 -1153 c-4 -8 -2 -21 3 -28 17 -21 6 -68 -50 -217 -30 -80
-60 -163 -67 -185 -7 -22 -21 -48 -30 -57 -18 -17 -60 -117 -60 -143 0 -8 -18
-62 -41 -120 -44 -114 -39 -110 -123 -99 -29 4 -46 12 -46 20 0 20 -40 17 -56
-3 -39 -55 -11 49 74 272 27 72 80 218 117 325 37 107 72 201 78 208 5 6 32
12 61 13 28 0 69 6 91 14 53 17 55 17 49 0z m431 -389 c-2 -6 -18 -55 -35
-108 -31 -95 -33 -98 -61 -98 -17 0 -32 6 -35 15 -5 12 57 219 73 248 7 12 62
-43 58 -57z"/>
</g>
</svg>
