<?xml version="1.0" standalone="no"?>
<!DOCTYPE svg PUBLIC "-//W3C//DTD SVG 20010904//EN"
 "http://www.w3.org/TR/2001/REC-SVG-20010904/DTD/svg10.dtd">
<svg version="1.0" xmlns="http://www.w3.org/2000/svg"
 width="1136.000000pt" height="1082.000000pt" viewBox="0 0 1136.000000 1082.000000"
 preserveAspectRatio="xMidYMid meet">
<metadata>
Created by potrace 1.16, written by Peter Selinger 2001-2019
</metadata>
<g transform="translate(0.000000,1082.000000) scale(0.100000,-0.100000)"
fill="#000000" stroke="none">
<path d="M6883 10692 c-133 -70 -245 -130 -249 -134 -4 -5 0 -16 8 -25 33 -39
31 -42 -24 -37 -42 5 -59 12 -81 36 -15 16 -42 34 -60 41 -18 6 -65 37 -106
69 -145 116 -252 152 -426 146 -122 -5 -189 -24 -283 -80 -68 -42 -239 -209
-272 -267 -14 -24 -39 -58 -56 -76 -49 -51 -103 -209 -104 -301 0 -30 -5 -44
-17 -49 -10 -3 -19 -2 -21 4 -2 5 -21 47 -43 93 l-41 83 4 152 c3 133 1 154
-14 169 -14 15 -20 15 -33 4 -14 -12 -15 -10 -11 12 4 24 -8 58 -17 48 -3 -3
-7 -40 -9 -82 -4 -62 -2 -78 9 -78 11 0 13 -20 11 -102 l-3 -101 -152 -93
-152 -93 -106 21 c-77 16 -108 19 -117 10 -26 -26 3 -39 177 -76 155 -33 180
-40 201 -64 13 -15 24 -30 24 -34 0 -3 12 -21 27 -40 16 -20 19 -26 7 -15 -21
18 -44 23 -44 10 0 -5 27 -33 60 -64 l60 -56 -97 -154 c-53 -85 -97 -155 -98
-157 -1 -1 -62 10 -136 26 -124 26 -134 30 -131 49 4 30 -12 36 -163 67 -71
15 -137 29 -146 32 -13 4 -18 -6 -23 -47 -4 -28 -5 -53 -4 -55 2 -2 71 -17
153 -34 163 -34 185 -40 230 -70 l30 -20 -52 0 c-46 0 -53 3 -53 20 0 19 -7
20 -185 20 -150 0 -185 -3 -185 -14 0 -7 -3 -28 -6 -45 l-6 -31 182 0 183 0
187 -60 187 -60 12 -57 c6 -31 11 -101 11 -155 0 -85 -2 -99 -17 -104 -10 -3
-49 -17 -88 -32 -79 -31 -93 -52 -45 -72 35 -15 35 -13 14 -73 -18 -55 -38
-64 -91 -42 -21 9 -66 22 -101 29 l-63 14 -17 -26 c-10 -15 -17 -46 -17 -74 0
-44 -2 -48 -25 -48 -14 -1 -72 -5 -130 -10 l-105 -10 -33 37 c-59 66 -66 87
-47 137 9 24 18 73 18 108 l2 65 24 -19 c35 -27 45 -11 65 114 20 125 14 145
-46 154 -33 6 -40 13 -73 75 -20 38 -39 69 -42 69 -10 0 -246 -91 -275 -106
-16 -8 -28 -21 -28 -28 0 -8 -6 -16 -14 -19 -9 -4 -16 -28 -19 -69 -3 -35 -9
-94 -12 -133 -3 -38 -6 -79 -7 -90 0 -27 55 -177 82 -220 19 -30 19 -34 4 -28
-11 4 -22 0 -30 -12 -8 -10 -14 -13 -14 -7 0 17 -25 15 -41 -4 -11 -13 -9 -19
15 -37 62 -48 91 -87 65 -87 -6 0 -23 -10 -38 -22 -23 -20 -36 -22 -89 -20
-58 4 -62 6 -68 30 -8 39 -19 57 -38 60 -10 2 -16 -3 -16 -15 0 -13 -2 -15 -9
-5 -21 35 -90 48 -91 18 0 -6 -7 -3 -14 7 -14 18 -46 14 -46 -7 0 -6 -4 -5 -9
3 -11 17 -41 7 -41 -14 0 -8 3 -15 8 -15 11 0 62 -49 62 -60 0 -6 -7 -10 -15
-10 -9 0 -18 -7 -21 -15 -12 -29 -45 -17 -215 78 -25 14 -77 38 -115 53 -74
30 -670 374 -743 430 -42 33 -75 42 -97 26 -23 -16 -44 -58 -44 -89 0 -31 4
-35 83 -74 123 -62 677 -383 677 -393 0 -5 -6 -4 -12 1 -7 5 -47 22 -88 38
-79 30 -690 372 -773 433 l-48 35 -27 -20 c-33 -24 -54 -80 -40 -106 5 -10 26
-25 46 -34 20 -8 189 -101 374 -206 l337 -192 -52 -11 c-29 -6 -75 -18 -103
-28 l-52 -17 -45 31 c-45 30 -176 90 -197 90 -17 0 -708 407 -768 453 -47 36
-55 39 -76 28 -29 -16 -78 -91 -74 -115 2 -10 10 -23 18 -27 8 -4 51 -26 95
-47 171 -85 703 -394 781 -454 84 -63 97 -78 69 -78 -8 0 -15 -6 -15 -14 0 -8
-3 -17 -8 -20 -9 -5 -108 16 -118 27 -4 4 -15 7 -24 7 -10 0 -23 6 -29 14 -7
8 -31 19 -54 25 -23 5 -66 17 -96 25 -78 23 -728 295 -784 329 -31 19 -55 27
-70 23 -25 -6 -67 -72 -67 -104 0 -22 34 -52 60 -52 13 0 174 -64 615 -245 77
-32 176 -79 220 -104 44 -26 91 -50 105 -54 14 -3 33 -12 43 -19 17 -13 11
-19 -63 -83 -45 -39 -86 -71 -91 -73 -12 -5 -516 182 -603 224 -39 18 -136 67
-216 109 -80 42 -162 81 -183 87 -20 6 -37 16 -37 23 0 6 -22 40 -49 75 -28
35 -58 84 -67 109 -10 25 -34 82 -55 126 -33 73 -42 83 -93 114 -156 93 -498
167 -605 130 l-31 -11 0 -106 c1 -155 24 -245 82 -314 93 -110 146 -196 201
-329 103 -246 109 -265 97 -310 -6 -22 -8 -49 -5 -60 7 -20 50 -43 65 -34 8 5
88 -181 147 -344 72 -200 153 -463 183 -599 l20 -94 -25 -30 c-14 -16 -25 -35
-25 -41 0 -6 18 -30 40 -52 l40 -41 35 -258 c31 -232 50 -336 70 -388 5 -12
-9 -29 -56 -65 -161 -124 -289 -236 -289 -251 0 -9 65 -70 146 -136 160 -132
230 -182 265 -191 14 -3 133 21 284 59 240 60 261 64 283 50 20 -13 32 -13
124 6 55 12 110 25 122 30 20 7 124 -40 306 -140 61 -33 131 -40 166 -16 52
37 116 183 147 335 l13 64 80 43 c43 24 126 60 184 80 150 53 156 57 163 100
4 21 21 86 38 146 32 108 32 109 88 152 l56 43 95 -96 c107 -107 243 -209 338
-252 57 -26 135 -46 252 -64 25 -4 58 -18 73 -31 31 -26 94 -32 144 -13 25 9
97 4 240 -17 l31 -5 -74 -130 -74 -130 74 -117 c70 -110 137 -247 166 -337 19
-61 104 -238 137 -287 17 -23 49 -80 72 -125 24 -45 50 -84 59 -87 48 -14 144
-26 206 -26 39 0 77 -4 84 -9 11 -7 6 -37 -27 -157 -45 -167 -59 -196 -196
-414 -118 -189 -178 -312 -199 -407 -28 -127 -39 -358 -32 -700 5 -287 4 -323
-9 -323 -32 0 -94 -41 -142 -94 -35 -38 -62 -82 -88 -143 -42 -101 -85 -253
-85 -301 0 -18 -5 -43 -11 -54 -16 -30 -13 -76 9 -143 11 -33 26 -112 32 -175
l12 -115 -38 -62 c-33 -56 -41 -63 -68 -63 -17 0 -36 -4 -43 -8 -22 -14 -34
-66 -40 -167 -5 -86 -2 -109 17 -165 31 -94 116 -269 134 -276 12 -5 14 -25
13 -102 -1 -94 0 -100 41 -195 64 -148 119 -242 191 -327 28 -34 30 -34 49
-17 26 24 87 190 107 291 9 44 18 116 21 160 7 92 45 311 74 425 26 102 57
184 119 310 28 57 51 110 51 117 0 6 18 52 41 100 22 49 52 118 66 154 14 36
32 75 40 87 8 12 17 47 20 77 5 50 4 56 -13 56 -17 0 -17 1 0 13 17 13 16 16
-13 64 -17 28 -31 59 -31 71 0 25 -33 134 -72 234 l-29 78 66 262 c69 275 107
394 275 872 107 306 138 373 221 477 79 97 117 161 166 278 24 58 52 113 62
121 10 8 28 33 41 55 33 56 56 86 126 165 81 91 109 162 101 263 -5 70 -3 75
40 166 27 56 61 108 85 132 37 36 42 38 61 24 27 -19 80 -19 116 -1 27 14 29
14 60 -18 l31 -32 -11 -76 c-10 -68 -15 -80 -49 -112 -29 -27 -41 -49 -54
-100 -22 -87 -20 -103 10 -143 21 -27 23 -37 14 -48 -9 -11 -10 -27 -3 -57 6
-24 7 -81 3 -128 -4 -47 -2 -106 3 -131 7 -35 6 -63 -7 -119 -22 -100 -20
-141 13 -245 27 -81 28 -92 15 -117 -23 -44 -71 -94 -103 -108 -51 -21 -62
-61 -50 -181 41 -414 41 -485 5 -628 -15 -57 -31 -149 -36 -205 -13 -140 -12
-166 3 -166 18 0 157 107 232 178 85 80 107 114 149 224 22 58 44 99 54 103
16 6 30 21 141 162 50 63 91 161 91 216 0 16 18 75 40 130 44 109 75 258 67
322 -3 22 -2 80 2 129 6 71 12 92 28 105 11 9 46 60 78 114 78 131 79 131 146
114 41 -11 88 -12 199 -7 180 10 227 27 407 146 70 46 131 84 137 84 6 0 38
20 70 44 l59 43 61 -62 c51 -51 74 -67 141 -92 94 -36 178 -47 257 -34 l58 10
141 -106 c240 -180 313 -225 454 -280 164 -65 260 -92 276 -76 9 9 -4 46 -49
145 -58 127 -124 279 -142 324 -8 21 -7 21 153 23 292 3 833 20 850 27 9 3 83
106 164 228 143 215 268 375 441 564 47 51 96 98 110 105 14 6 29 20 34 30 18
37 26 48 121 158 54 63 121 147 149 189 65 98 176 227 227 265 22 17 41 33 41
37 0 13 -67 47 -148 74 -101 33 -123 28 -166 -35 -44 -66 -75 -75 -254 -77
-144 -2 -153 -1 -163 18 -6 12 -29 41 -52 65 -39 42 -41 43 -90 38 -61 -8
-136 -32 -159 -52 -16 -14 -24 -14 -83 6 -36 11 -81 21 -101 21 -19 0 -245 56
-502 124 -257 68 -532 141 -612 162 -80 21 -148 43 -152 50 -5 7 -30 18 -58
25 -40 10 -50 17 -50 34 0 11 -6 29 -14 40 -7 11 -15 44 -18 73 -5 52 -5 53
18 48 13 -4 44 -9 69 -13 44 -6 45 -5 45 22 0 26 2 27 33 20 17 -4 45 -7 61
-7 15 1 34 -5 42 -13 9 -8 33 -14 62 -13 26 1 72 -2 102 -6 65 -9 867 -207
959 -237 73 -25 74 -24 93 59 13 62 9 67 -57 77 -54 8 -445 99 -441 103 7 6
467 -68 487 -78 11 -7 27 -9 34 -6 16 6 35 67 35 112 0 36 -13 44 -73 44 -52
0 -935 138 -962 150 -11 5 -40 14 -65 20 -25 6 -57 15 -71 21 -14 5 -43 12
-65 14 -162 17 -341 76 -337 112 7 53 -25 84 -37 35 -3 -14 -9 -19 -18 -13
-10 6 -11 13 -1 34 7 15 10 30 7 33 -4 3 -35 7 -70 9 -106 6 -154 40 -204 144
-14 30 -34 66 -45 79 -10 13 -16 28 -13 33 8 14 41 -8 127 -82 83 -72 107 -84
132 -65 14 10 14 15 -7 44 -13 17 -52 64 -88 104 -36 39 -60 69 -55 66 6 -3
28 -3 50 1 33 6 50 2 94 -21 61 -32 70 -33 97 -13 18 14 17 16 -26 54 -29 25
-45 47 -45 62 0 21 -6 25 -52 29 -49 5 -72 14 -61 25 2 3 40 12 84 20 101 20
146 42 142 69 -3 20 -9 21 -106 21 l-102 0 0 28 c0 27 -1 27 -66 27 -132 0
-891 50 -954 63 l-65 14 90 7 c50 5 308 10 575 11 l485 4 3 63 3 63 -513 3
c-379 3 -540 7 -617 18 -57 8 -120 11 -139 8 -27 -5 -34 -4 -30 7 3 8 -8 31
-24 51 l-30 38 22 91 c46 195 41 228 -45 334 -25 30 -45 61 -45 68 0 8 -11 30
-24 50 -14 20 -34 57 -46 84 -11 26 -31 59 -43 72 -22 24 -116 71 -141 71 -7
0 -45 16 -85 36 l-71 35 51 61 c28 33 64 84 80 114 l30 53 35 -21 c44 -26 55
-16 23 20 -14 15 -39 48 -57 74 l-33 47 43 -18 c92 -40 122 -36 48 7 -57 32
-167 138 -178 171 l-10 29 74 -35 c79 -36 174 -55 174 -34 0 6 -10 11 -22 11
-12 0 -19 2 -17 5 3 2 47 1 98 -3 85 -7 127 0 84 14 -57 18 -86 34 -165 87
-83 55 -109 81 -154 151 -18 29 -18 29 2 18 12 -6 53 -20 93 -31 54 -15 71
-17 71 -7 0 7 -19 19 -42 26 -24 7 -63 23 -88 36 l-45 23 42 1 c23 0 53 -4 67
-10 43 -16 156 -24 156 -11 0 6 -8 11 -17 12 -10 0 -36 6 -58 13 l-40 12 83
29 c45 15 82 32 82 37 0 4 -22 8 -50 8 -49 0 -50 0 -38 25 15 34 6 39 -37 24
l-37 -14 -81 84 c-77 80 -80 85 -59 94 32 15 27 23 -19 33 -39 8 -44 14 -95
103 -58 99 -59 121 -8 121 13 0 24 5 24 10 0 6 5 10 10 10 6 0 90 63 188 140
97 77 185 140 195 140 9 0 17 5 17 10 0 6 4 10 10 10 15 0 50 33 50 46 0 7 8
10 20 7 39 -10 20 33 -47 106 -24 25 -43 49 -43 54 0 19 -54 -4 -277 -121z
m-1841 -714 c-4 -4 -67 4 -140 19 -72 15 -130 28 -129 29 1 1 63 38 137 83
l135 81 3 -102 c1 -56 -1 -105 -6 -110z m163 -238 c10 -11 24 -20 31 -20 19 0
28 -60 28 -190 0 -118 -15 -200 -37 -200 -6 0 -35 6 -64 12 -49 12 -53 15 -53
43 -3 160 3 342 11 357 13 24 61 23 84 -2z m-167 -187 c-3 -65 -7 -121 -7
-125 -1 -5 -18 -8 -38 -8 -21 -1 -49 -7 -62 -14 -24 -13 -65 -10 -59 4 8 19
163 260 168 260 3 0 2 -53 -2 -117z m394 -319 c9 -6 -5 -50 -30 -100 -13 -25
-33 -46 -50 -53 -41 -17 -115 -93 -169 -173 -24 -38 -46 -68 -47 -68 -2 0 -17
5 -35 11 l-31 11 0 109 0 109 38 50 c35 47 43 51 142 84 96 31 151 37 182 20z
m5 -1209 c4 -57 0 -83 -20 -140 -22 -63 -26 -70 -48 -66 -51 7 -51 39 4 196
47 138 54 139 64 10z m2677 -401 c172 -7 202 -15 104 -27 -26 -4 -93 -20 -149
-37 -120 -36 -126 -36 -154 -10 -12 11 -51 36 -86 56 l-64 35 85 -5 c47 -3
166 -9 264 -12z m1690 -2019 c49 -8 100 -15 113 -15 20 0 24 -4 18 -17 -4 -10
-12 -30 -17 -45 -5 -16 -13 -28 -16 -28 -4 0 -43 11 -87 24 -63 18 -81 28 -85
45 -3 12 -18 31 -35 42 -29 20 -29 21 -5 15 14 -3 65 -12 114 -21z"/>
</g>
</svg>
