<?xml version="1.0" standalone="no"?>
<!DOCTYPE svg PUBLIC "-//W3C//DTD SVG 20010904//EN"
 "http://www.w3.org/TR/2001/REC-SVG-20010904/DTD/svg10.dtd">
<svg version="1.0" xmlns="http://www.w3.org/2000/svg"
 width="855.000000pt" height="1228.000000pt" viewBox="0 0 855.000000 1228.000000"
 preserveAspectRatio="xMidYMid meet">
<metadata>
Created by potrace 1.16, written by Peter Selinger 2001-2019
</metadata>
<g transform="translate(0.000000,1228.000000) scale(0.100000,-0.100000)"
fill="#000000" stroke="none">
<path d="M4870 12063 c-80 -13 -226 -56 -272 -79 -138 -69 -267 -193 -336
-324 -36 -68 -50 -108 -82 -238 l-11 -44 -57 6 c-31 3 -131 11 -220 17 -184
14 -186 13 -175 -53 3 -23 1 -38 -4 -38 -6 0 -22 -12 -37 -27 -25 -25 -25 -27
-10 -45 10 -10 25 -18 34 -18 9 0 24 -8 34 -19 13 -14 58 -25 189 -46 161 -25
174 -29 198 -56 14 -16 31 -29 39 -29 10 0 12 -24 6 -120 -9 -170 -11 -175
-54 -189 -63 -19 -98 -47 -126 -102 -16 -30 -38 -65 -50 -79 -13 -14 -33 -43
-46 -65 -13 -22 -38 -64 -57 -93 -35 -53 -55 -97 -88 -186 -14 -39 -20 -45
-27 -32 -15 26 -66 21 -80 -9 l-11 -25 -126 6 c-69 3 -164 1 -211 -4 -59 -7
-86 -7 -89 0 -2 6 -12 19 -23 30 -17 17 -28 19 -67 14 -87 -12 -95 -14 -98
-23 -2 -6 -20 -7 -46 -2 -23 4 -91 8 -152 9 -60 0 -128 5 -150 11 -22 6 -112
59 -200 118 -189 127 -323 212 -420 265 -38 22 -106 61 -151 88 -99 60 -148
73 -338 89 -243 19 -429 -1 -546 -61 -37 -19 -39 -19 -44 -2 -9 27 -73 85 -85
78 -12 -8 -15 -115 -3 -132 4 -6 14 -14 22 -17 19 -7 -59 1 -124 14 -53 10
-72 4 -42 -13 25 -14 76 -66 76 -77 0 -17 57 -33 78 -22 30 16 35 14 54 -19
10 -17 23 -29 30 -28 15 4 67 -91 109 -197 17 -44 44 -142 59 -217 39 -194 85
-283 210 -408 65 -64 264 -203 378 -265 50 -27 125 -102 167 -168 l18 -28 -39
6 c-255 36 -371 43 -396 23 -22 -19 -36 -62 -53 -170 -26 -166 -21 -188 38
-203 15 -4 27 -9 27 -11 0 -2 -11 -47 -24 -101 -43 -175 -44 -160 21 -190 l57
-26 -26 -21 c-22 -19 -29 -42 -62 -226 -21 -113 -44 -212 -52 -220 -25 -29
-82 -165 -94 -226 -7 -34 -10 -86 -9 -118 l4 -56 -34 0 c-41 0 -95 -35 -138
-88 -43 -54 -53 -76 -53 -121 0 -22 -4 -42 -9 -45 -23 -14 -55 38 -105 174
-89 236 -162 503 -236 865 -61 296 -73 334 -144 458 -41 72 -71 138 -77 170
-20 102 -13 367 15 581 33 249 33 241 -4 256 -16 7 -36 10 -44 7 -26 -10 -97
-262 -234 -827 l-11 -45 4 60 c3 33 7 116 10 185 7 145 44 375 87 540 16 63
33 129 37 145 7 27 -6 154 -23 219 -15 60 -56 9 -113 -141 -91 -238 -141 -564
-163 -1063 -6 -129 -20 -347 -31 -485 -36 -441 -23 -1042 27 -1289 82 -405
301 -905 572 -1305 121 -179 167 -233 299 -357 303 -284 520 -426 843 -551
l125 -48 190 0 c234 1 350 21 367 64 11 30 -7 152 -47 312 -27 110 -37 129
-67 129 -16 0 -17 3 -8 21 8 14 8 29 1 50 -10 29 -10 29 28 29 97 0 254 79
357 179 40 38 42 39 58 22 15 -16 13 -32 -28 -217 -51 -224 -87 -422 -112
-599 -29 -215 -29 -689 0 -865 2 -14 7 -47 11 -75 3 -27 20 -120 36 -205 25
-128 44 -189 109 -355 43 -110 93 -231 110 -270 18 -38 48 -110 67 -160 32
-83 92 -224 100 -235 2 -2 21 15 42 38 59 64 67 58 74 -50 11 -176 66 -507
126 -758 41 -170 56 -264 80 -486 45 -414 55 -661 32 -794 -16 -96 -13 -149
11 -207 20 -48 20 -54 6 -70 -15 -17 -14 -24 7 -90 13 -40 27 -88 31 -107 7
-40 45 -71 76 -63 14 4 31 -5 56 -29 22 -22 57 -41 96 -53 79 -24 269 -46 327
-37 80 12 81 14 83 169 l1 136 -52 48 c-61 57 -103 141 -103 208 0 35 -7 52
-35 87 -93 114 -111 200 -165 768 -12 124 -27 275 -35 335 -35 269 -30 460 22
1015 9 96 16 185 16 198 -1 31 26 47 134 76 51 13 113 34 137 47 57 28 151
101 172 134 16 24 16 30 -5 103 -13 42 -58 167 -100 277 -138 354 -154 430
-167 810 -4 141 -2 208 11 310 10 72 19 149 21 172 1 22 8 83 14 135 6 51 15
147 21 213 15 170 22 218 36 222 7 3 13 -20 17 -69 39 -450 24 -1165 -30
-1447 -7 -41 -12 -77 -9 -79 3 -3 75 9 160 27 85 18 194 34 243 36 l87 3 18
53 c45 133 52 200 51 509 0 237 -5 332 -22 482 -12 103 -22 191 -22 195 0 5
18 -37 39 -92 67 -176 152 -333 270 -497 61 -86 124 -185 140 -219 59 -130
170 -407 201 -504 30 -92 81 -216 130 -317 29 -61 93 -297 154 -569 54 -241
140 -584 231 -924 46 -172 101 -431 130 -605 8 -52 18 -196 22 -320 l6 -225
-27 -63 c-21 -50 -26 -77 -25 -135 1 -48 -8 -110 -26 -187 -46 -193 -54 -234
-55 -273 0 -51 29 -152 52 -176 27 -30 111 -51 202 -51 145 0 198 30 210 116
4 27 16 76 27 108 14 42 23 106 29 215 15 252 12 386 -14 598 -28 227 -53 601
-61 913 -5 204 -8 270 -20 455 -12 183 -29 291 -65 416 -12 40 -30 108 -41
149 -23 95 -69 229 -154 450 -96 251 -123 339 -164 539 l-18 87 196 2 c277 2
291 -1 481 -122 181 -115 216 -142 328 -255 99 -99 156 -174 220 -289 26 -47
63 -103 84 -126 l36 -41 37 35 c49 46 99 120 185 274 87 156 121 205 234 341
95 114 202 212 268 246 24 12 65 25 93 28 27 3 50 10 50 15 0 24 -384 292
-535 375 -142 78 -465 237 -525 259 -33 13 -89 28 -125 36 l-65 13 45 8 c24 4
69 16 99 26 l55 17 60 -30 c97 -48 254 -145 341 -208 108 -80 191 -128 313
-183 124 -56 191 -68 219 -40 18 18 20 40 26 240 7 217 7 222 37 288 24 54 30
81 30 136 0 67 -55 527 -84 706 -83 504 -156 904 -196 1066 -22 89 -37 111
-155 226 -47 46 -84 89 -82 95 2 6 241 203 532 438 290 234 536 439 546 455
10 15 19 41 19 56 0 34 -40 77 -73 77 -34 0 -76 -31 -404 -300 -164 -134 -352
-288 -418 -341 -66 -54 -150 -123 -187 -154 -56 -46 -67 -52 -72 -38 -21 72
-76 273 -76 281 0 8 119 112 512 444 127 108 144 131 139 189 -2 28 -40 59
-74 59 -37 0 -51 -11 -288 -215 -303 -261 -344 -294 -350 -287 -4 4 -21 52
-39 107 -18 55 -36 105 -41 111 -7 8 5 13 41 16 66 7 80 20 80 77 0 67 -22 94
-71 89 -38 -3 -39 -3 -39 30 0 65 -13 74 -95 71 l-73 -3 -128 134 c-207 217
-477 419 -532 399 -24 -9 -30 -46 -12 -79 26 -49 147 -486 137 -496 -3 -3 -30
-8 -61 -11 -56 -6 -56 -6 -56 21 0 15 -12 62 -26 104 -14 42 -32 101 -40 131
-8 30 -33 90 -55 135 -23 45 -67 140 -99 211 -32 72 -78 173 -103 225 -78 168
-103 239 -89 261 9 15 10 25 1 41 -9 16 -8 22 2 29 19 12 19 12 106 -16 43
-14 85 -25 93 -25 15 0 100 78 100 92 0 4 -39 9 -87 9 -80 1 -84 2 -47 11 37
9 42 14 64 69 13 33 20 62 17 65 -9 9 -112 -41 -177 -87 -33 -23 -66 -39 -74
-36 -7 3 -22 -1 -33 -8 -18 -13 -19 -11 -15 16 2 16 1 41 -2 55 -6 22 -11 25
-36 22 -17 -3 -30 -4 -30 -3 0 17 -42 220 -51 245 -28 80 -79 119 -189 144
-147 35 -226 79 -313 176 l-44 48 9 74 c10 81 19 96 63 102 17 2 43 9 58 15
58 23 239 10 257 -19 9 -14 -9 -165 -24 -211 -11 -31 -11 -39 -1 -39 14 0 91
80 120 123 26 40 30 26 5 -22 -24 -47 -11 -55 19 -12 49 68 100 226 102 316
l1 50 14 -65 c16 -74 23 -337 11 -390 -7 -33 -7 -34 8 -15 26 33 37 85 42 206
9 198 -28 380 -151 751 l-73 220 26 10 c14 5 96 34 181 63 239 82 304 106 318
119 10 10 9 24 -6 72 -17 56 -20 59 -48 55 -63 -8 -67 -7 -79 28 -6 19 -18 39
-27 44 -10 7 -79 -12 -241 -66 l-226 -75 -29 51 c-84 147 -176 236 -318 304
-95 45 -214 63 -314 46z m-132 -1595 c19 -19 14 -35 -14 -42 -15 -4 -43 -20
-63 -35 -56 -45 -75 -47 -113 -12 -29 26 -31 31 -18 45 42 42 181 71 208 44z
m-728 -1140 c0 -7 -5 -62 -10 -123 -13 -134 -36 -222 -60 -230 -16 -5 -40 -5
-175 -1 l-51 1 14 39 c16 49 11 62 -33 83 -19 9 -34 20 -33 24 2 4 47 48 100
98 63 58 106 91 120 91 13 0 34 7 48 14 32 18 80 20 80 4z m1571 -640 c-2 -52
-32 -169 -50 -197 -10 -15 -24 12 -56 106 -21 60 -19 70 16 129 l32 52 30 -19
c29 -17 31 -22 28 -71z m-117 -228 c13 -65 13 -65 -10 -68 -24 -3 -104 44
-104 61 0 6 17 44 37 85 l38 75 13 -44 c7 -24 18 -73 26 -109z m-2228 -188
c-26 -215 -41 -264 -76 -255 -12 3 -19 11 -17 17 3 6 12 50 22 99 13 68 15 94
6 115 -9 22 -7 40 9 92 11 36 20 72 20 80 0 13 51 62 58 55 1 -1 -8 -92 -22
-203z m3233 -327 c1 -142 -16 -261 -49 -345 -24 -62 -82 -162 -115 -202 l-23
-27 -22 72 c-21 68 -29 114 -47 282 -7 65 -6 76 25 155 19 47 45 117 59 157
27 79 26 78 123 85 45 4 47 -6 49 -177z"/>
</g>
</svg>
