<?xml version="1.0" standalone="no"?>
<!DOCTYPE svg PUBLIC "-//W3C//DTD SVG 20010904//EN"
 "http://www.w3.org/TR/2001/REC-SVG-20010904/DTD/svg10.dtd">
<svg version="1.0" xmlns="http://www.w3.org/2000/svg"
 width="1127.000000pt" height="1170.000000pt" viewBox="0 0 1127.000000 1170.000000"
 preserveAspectRatio="xMidYMid meet">
<metadata>
Created by potrace 1.16, written by Peter Selinger 2001-2019
</metadata>
<g transform="translate(0.000000,1170.000000) scale(0.100000,-0.100000)"
fill="#000000" stroke="none">
<path d="M6753 11511 c-8 -12 -10 -64 -6 -172 l5 -154 -20 25 -21 25 -224
-112 c-222 -110 -225 -112 -239 -91 -13 19 -18 20 -46 10 -43 -15 -75 2 -101
55 -11 24 -25 43 -31 43 -21 0 -21 -30 0 -64 17 -29 20 -44 14 -81 -8 -57 -35
-76 -54 -40 -16 30 -31 31 -86 6 -46 -21 -50 -20 -124 37 -25 20 -95 59 -157
89 -96 46 -123 54 -190 59 -45 4 -114 18 -163 35 -78 26 -86 27 -97 12 -7 -9
-13 -27 -13 -40 0 -14 -7 -26 -17 -29 -10 -3 -48 -18 -86 -34 l-67 -28 -29 41
c-45 67 -61 103 -61 142 0 56 23 99 63 118 47 23 74 21 127 -5 39 -20 45 -27
42 -51 -4 -43 -37 -110 -72 -151 -18 -20 -30 -39 -27 -42 17 -17 237 168 237
200 0 32 -61 74 -158 107 -99 34 -165 21 -248 -46 -24 -20 -61 -42 -83 -50
-22 -7 -51 -21 -66 -31 -30 -20 -75 -92 -75 -122 0 -41 149 -144 244 -168 l26
-6 -24 -19 c-23 -18 -25 -18 -86 7 -52 21 -65 23 -76 12 -7 -7 -31 -60 -54
-118 -35 -88 -51 -115 -99 -165 -58 -60 -58 -61 -75 -155 -23 -130 -25 -140
-35 -140 -4 0 -12 24 -17 52 -7 39 -14 54 -27 56 -16 3 -18 -1 -12 -41 9 -62
0 -84 -40 -97 -29 -10 -35 -16 -35 -40 0 -32 26 -22 -260 -100 -85 -23 -161
-43 -168 -46 -11 -3 -12 -16 -6 -57 4 -28 7 -62 6 -73 -3 -40 19 -46 99 -29
89 19 321 56 325 52 2 -2 -24 -36 -58 -77 -79 -97 -108 -158 -108 -230 0 -31
5 -61 12 -68 7 -7 38 -17 69 -24 61 -12 69 -22 96 -112 14 -45 32 -52 106 -39
63 11 127 35 179 69 15 10 30 15 34 11 4 -4 2 -32 -5 -62 -19 -85 -57 -114
-396 -306 -71 -40 -198 -105 -282 -145 -199 -94 -232 -114 -286 -174 -88 -98
-123 -263 -62 -286 24 -10 29 2 11 28 -9 12 -16 33 -16 46 0 22 2 22 34 -12
37 -40 53 -43 96 -21 28 14 27 12 -18 -48 -26 -34 -54 -73 -63 -87 -16 -24
-16 -24 -95 -12 -43 7 -205 30 -359 53 -154 22 -309 47 -344 55 -77 18 -104
13 -119 -21 -17 -38 -15 -69 8 -97 15 -20 32 -27 82 -32 78 -9 254 -39 595
-102 l261 -49 4 -37 c3 -33 1 -38 -17 -38 -71 -2 -226 -21 -260 -33 -32 -11
-139 -16 -480 -22 -481 -8 -475 -7 -475 -67 0 -15 8 -36 19 -47 17 -17 36 -18
342 -14 313 4 323 3 299 -14 -242 -175 -418 -338 -631 -585 -31 -35 -99 -65
-99 -44 0 25 -21 29 -49 9 -35 -26 -66 -36 -121 -38 -25 -1 -70 -6 -100 -12
-33 -7 -259 -14 -559 -18 -338 -4 -509 -9 -518 -17 -15 -12 -18 -95 -4 -116 7
-11 79 -15 357 -18 494 -5 761 -14 740 -26 -9 -5 -58 -11 -109 -14 -50 -2
-112 -8 -137 -14 -46 -10 -770 -40 -966 -40 -72 0 -114 -4 -122 -12 -17 -17
-15 -83 3 -98 12 -10 139 -12 567 -9 532 3 745 -2 767 -16 8 -4 8 -12 0 -27
-8 -15 -8 -22 1 -28 9 -5 6 -18 -9 -48 -12 -23 -21 -50 -21 -61 0 -13 -12 -24
-38 -34 -35 -14 -755 -136 -912 -155 -48 -6 -80 -6 -88 1 -6 5 -12 7 -12 4 0
-4 -17 5 -37 19 -57 39 -165 68 -229 61 -85 -9 -187 -72 -206 -127 -5 -17
-145 11 -199 40 -22 11 -50 20 -63 20 -17 0 -27 9 -36 30 -17 40 -37 50 -102
50 -64 -1 -214 -32 -231 -49 -9 -9 11 -33 88 -108 55 -53 147 -141 205 -197
58 -56 126 -117 152 -135 38 -27 45 -37 38 -51 -15 -29 11 -54 48 -47 29 6 36
1 104 -79 122 -143 263 -360 413 -634 72 -132 87 -148 150 -156 28 -4 54 -13
58 -21 11 -18 122 -18 139 0 18 20 303 11 336 -10 13 -8 56 -23 96 -33 74 -19
168 -61 236 -106 36 -24 37 -26 29 -67 -4 -23 -40 -105 -80 -183 -43 -83 -70
-147 -66 -156 10 -26 109 -41 238 -36 l117 5 58 45 c33 25 129 113 214 194
340 326 429 399 624 506 81 45 95 49 256 75 93 16 170 27 170 26 0 -1 -37 -60
-81 -130 -100 -156 -149 -248 -149 -277 0 -41 30 -140 66 -216 62 -133 269
-510 279 -510 16 1 38 22 88 83 110 135 212 313 303 524 l9 22 43 -26 c25 -15
42 -32 42 -43 0 -10 10 -31 23 -47 33 -39 64 -125 77 -209 7 -42 19 -80 29
-91 21 -22 45 -166 36 -210 -18 -79 -26 -91 -109 -156 -142 -113 -265 -260
-336 -402 -46 -92 -138 -369 -177 -530 -58 -246 -60 -250 -74 -246 -8 2 -37 6
-66 9 -78 7 -145 -28 -220 -116 -69 -80 -83 -121 -83 -249 0 -67 -3 -79 -27
-107 -14 -17 -32 -46 -40 -64 -10 -24 -19 -32 -39 -32 -59 0 -88 -69 -101
-239 -4 -66 -2 -101 11 -146 34 -116 121 -245 166 -245 12 0 34 9 49 19 l28
20 -13 -67 c-17 -84 -18 -222 -3 -273 12 -40 131 -205 161 -223 20 -12 28 -4
88 95 51 83 76 154 106 298 20 95 34 133 89 240 36 69 71 131 78 136 14 12 57
72 57 80 0 3 31 45 69 93 114 145 140 210 105 260 -9 13 -14 24 -13 26 2 1 16
7 32 14 19 8 27 19 27 37 0 52 -63 144 -98 145 -19 0 -74 32 -89 50 -9 12 0
37 49 130 66 124 196 325 262 405 357 429 398 474 490 537 240 163 254 181
289 364 14 71 30 176 37 234 7 61 18 112 26 121 8 8 14 26 14 38 0 38 31 174
47 206 9 16 31 47 49 67 40 45 57 104 52 180 -3 46 -11 65 -36 97 -63 78 -32
112 76 87 125 -29 123 -29 108 41 l-7 32 58 -35 c32 -19 68 -37 80 -40 30 -8
143 -185 143 -225 0 -37 37 -112 90 -182 23 -29 40 -63 40 -78 0 -14 15 -46
34 -70 18 -24 43 -64 56 -89 12 -25 28 -52 35 -60 21 -25 92 -209 115 -300 33
-123 71 -198 143 -276 90 -98 113 -135 237 -383 123 -248 144 -282 380 -636
263 -396 364 -553 415 -652 l48 -92 -22 -47 c-31 -65 -44 -148 -37 -224 7 -69
56 -177 140 -309 23 -36 48 -80 55 -98 7 -18 19 -38 27 -44 36 -29 87 -134
104 -212 30 -136 74 -217 194 -357 41 -48 63 -85 82 -140 83 -236 100 -282
133 -354 62 -138 311 -476 350 -476 13 0 26 16 41 51 19 45 22 71 23 208 2
231 -18 329 -138 666 -56 159 -57 161 -61 295 -7 211 -13 233 -103 392 -26 46
-32 70 -37 140 -3 45 -10 94 -15 108 -5 14 -13 80 -18 147 -8 99 -15 131 -36
173 -30 59 -100 140 -122 140 -8 0 -30 12 -50 27 -20 15 -65 37 -102 49 l-66
22 -48 144 c-26 78 -72 227 -102 330 -70 241 -166 509 -222 623 -56 110 -134
227 -244 364 -223 277 -229 285 -260 365 -19 48 -34 114 -41 170 -21 177 -11
606 14 631 3 4 15 2 25 -3 30 -17 221 -218 352 -372 68 -80 126 -146 130 -147
3 -1 18 23 33 55 16 31 80 134 143 227 223 327 336 522 386 666 19 55 23 87
25 219 1 86 5 166 8 178 10 30 -22 131 -46 145 -22 14 -23 40 -4 56 12 10 25
5 67 -24 28 -19 54 -33 56 -31 3 3 113 -68 245 -156 132 -88 270 -174 306
-190 37 -17 71 -36 77 -43 22 -26 106 -66 126 -60 14 5 31 -3 58 -28 41 -37
101 -62 130 -54 10 2 29 -2 42 -9 13 -7 36 -13 52 -14 15 0 27 -3 27 -6 0 -16
-32 -57 -116 -152 -52 -58 -97 -117 -101 -130 -7 -30 3 -40 102 -92 77 -40 83
-42 150 -37 57 4 102 18 245 77 269 110 832 397 1000 511 31 20 75 42 98 48
23 6 61 16 85 22 35 9 67 36 198 167 128 130 172 181 248 295 136 205 221 385
304 643 77 238 80 268 74 594 -6 306 -25 487 -71 695 -14 61 -32 173 -41 250
-18 153 -43 305 -74 442 -11 48 -30 140 -42 203 -30 158 -32 163 -68 155 -17
-3 -32 -2 -36 4 -9 16 -57 13 -100 -5 -21 -8 -133 -38 -249 -65 -116 -27 -290
-68 -386 -91 -96 -22 -220 -44 -275 -48 -110 -9 -162 -16 -185 -27 -8 -3 -45
-9 -81 -12 l-67 -6 -7 58 c-4 39 -2 63 6 73 24 29 601 423 688 470 71 38 82
63 53 118 -22 42 -66 76 -95 76 -9 0 -44 -24 -79 -53 -154 -131 -708 -497
-751 -497 -5 0 -23 -10 -40 -22 -45 -33 -95 -58 -112 -58 -8 0 -29 9 -47 20
-18 11 -49 20 -70 20 -20 0 -38 6 -40 12 -6 18 50 60 116 89 38 16 56 30 56
42 0 22 -26 33 -44 18 -11 -9 -15 -8 -20 5 -3 9 -12 14 -20 11 -7 -3 -19 0
-25 6 -8 8 -15 7 -28 -4 -56 -45 -139 -75 -160 -57 -8 6 -44 12 -81 12 l-66 1
-9 -42 c-4 -24 -12 -43 -17 -43 -5 0 -12 -9 -15 -20 -3 -11 -13 -20 -21 -20
-9 0 -14 -11 -14 -31 0 -16 -4 -28 -9 -25 -5 4 -34 7 -65 7 -54 2 -56 3 -56
28 0 24 -6 29 -53 44 -30 9 -69 17 -89 17 -28 0 -34 4 -33 20 1 10 12 28 26
38 26 20 112 66 142 76 21 7 22 29 2 46 -12 10 -18 10 -29 1 -11 -9 -16 -9
-21 -1 -4 7 -16 10 -26 7 -11 -3 -19 -1 -19 4 0 5 -9 9 -20 9 -11 0 -20 -4
-20 -10 0 -5 -5 -10 -10 -10 -6 0 -23 -9 -39 -21 -34 -25 -96 -40 -109 -27 -5
5 -38 13 -73 18 -74 11 -87 4 -95 -51 -4 -21 -13 -40 -20 -43 -8 -3 -14 -12
-14 -21 0 -8 -7 -15 -15 -15 -7 0 -18 -7 -22 -15 -10 -17 -121 -23 -295 -15
-102 5 -107 6 -119 30 -7 14 -11 35 -10 48 6 51 -49 94 -160 126 -53 16 -55
18 -51 45 2 16 17 41 33 57 l28 27 99 -31 c132 -42 381 -89 517 -98 l110 -6
130 43 c317 105 719 357 897 561 89 102 117 146 143 229 42 134 58 251 60 433
2 162 3 169 24 185 21 16 31 16 114 4 49 -7 124 -22 166 -33 41 -10 77 -17 80
-14 2 2 -3 29 -12 58 -17 54 -18 55 -68 65 -27 6 -89 11 -136 11 l-85 0 61 66
c94 100 108 127 112 217 3 58 1 77 -8 77 -7 0 -13 -5 -13 -10 0 -20 -102 -191
-161 -270 -61 -83 -85 -102 -99 -80 -20 32 -362 -18 -513 -75 -51 -19 -156
-53 -234 -75 -132 -38 -314 -104 -394 -145 -19 -10 -82 -46 -140 -82 -74 -44
-122 -66 -156 -72 -28 -4 -70 -19 -94 -33 -81 -47 -89 -42 -30 19 73 76 171
195 194 236 21 38 18 120 -5 143 -13 13 -20 11 -56 -19 -22 -19 -63 -61 -90
-93 -74 -88 -172 -178 -221 -203 l-44 -23 8 49 c3 26 16 84 27 128 25 96 20
177 -12 230 -25 41 -39 43 -68 12 -27 -29 -46 -83 -62 -177 -27 -172 -44 -203
-170 -330 -105 -106 -129 -117 -193 -91 -47 19 -101 13 -141 -14 -26 -17 -44
-23 -62 -19 -13 3 -24 10 -24 14 0 4 72 61 160 126 207 154 214 183 25 100
-55 -24 -133 -57 -173 -74 l-73 -31 97 126 c104 137 110 148 95 157 -5 3 -54
-52 -108 -124 -54 -71 -104 -130 -111 -130 -14 0 -11 7 20 52 27 39 12 58 -17
22 l-22 -27 -6 138 c-3 76 -4 142 -1 147 3 4 30 8 60 8 67 0 112 18 145 57 24
28 29 30 81 25 74 -6 135 15 203 70 52 42 53 44 50 88 -4 62 -14 83 -34 74
-49 -21 -513 -186 -515 -183 -2 2 -7 116 -10 252 l-8 249 31 -22 c47 -35 56
-24 58 69 1 48 -2 81 -8 81 -12 0 -16 -12 -24 -72 -6 -46 -7 -47 -31 -36 -25
12 -27 17 -24 55 1 24 -28 72 -45 73 -6 0 -15 -8 -22 -19z m9 -593 c3 -66 1
-78 -13 -78 -8 0 -116 -35 -240 -79 -172 -60 -224 -82 -223 -95 2 -20 0 -20
-36 -1 -16 8 -36 12 -44 9 -34 -13 -14 6 39 38 30 18 57 40 60 48 3 8 105 72
228 143 178 102 222 124 224 110 1 -10 4 -53 5 -95z m16 -454 c-3 -2 -20 4
-39 13 -47 24 -121 23 -149 -2 -19 -17 -21 -26 -15 -77 l7 -58 -31 0 c-24 0
-31 4 -31 20 0 10 -10 25 -22 31 -32 17 -46 38 -53 81 -4 21 -15 48 -25 61
-19 24 -19 24 4 35 13 6 39 24 59 41 31 28 38 30 65 20 51 -18 132 11 176 63
20 23 37 46 38 52 0 6 5 -53 10 -132 6 -79 8 -145 6 -148z m-2161 -386 c15 -7
29 -12 30 -13 1 0 -2 -33 -7 -74 -6 -55 -4 -82 6 -106 7 -19 11 -47 7 -68 -5
-31 -10 -36 -47 -46 -36 -9 -43 -8 -61 10 -17 17 -20 33 -20 113 0 77 4 101
24 144 27 57 28 57 68 40z m6197 -1140 c-31 -61 -152 -210 -258 -318 -112
-114 -109 -108 -121 -240 -23 -247 -100 -494 -242 -775 -63 -123 -73 -136
-176 -238 -60 -60 -111 -106 -113 -104 -12 12 32 75 64 92 46 25 51 52 41 203
-8 130 -13 149 -40 157 -33 11 -55 39 -74 94 -9 28 -32 69 -51 92 -18 22 -38
57 -43 77 -66 251 -71 284 -46 332 14 27 14 30 -10 56 -16 17 -25 39 -25 59 0
17 -7 40 -15 51 -30 39 -21 44 85 44 92 0 100 2 100 19 0 29 -18 71 -30 71 -7
0 -31 12 -56 26 l-44 26 22 17 c33 24 75 41 103 41 13 0 26 4 29 9 12 19 170
65 481 140 300 72 406 97 428 100 4 1 0 -14 -9 -31z m-6790 10 c-22 -38 -97
-129 -133 -161 -61 -55 -124 -50 -157 15 -16 30 -15 32 7 49 26 20 146 70 224
93 63 18 68 19 59 4z m3755 -56 c-33 -15 -38 -24 -74 -124 -21 -59 -40 -106
-42 -104 -2 1 -12 20 -22 41 -16 34 -17 43 -5 88 7 28 18 55 23 60 6 6 11 21
11 34 0 22 3 23 73 22 l72 -1 -36 -16z m201 -497 c0 -51 -2 -55 -23 -55 -13 0
-46 -7 -72 -15 -61 -18 -79 -7 -70 41 3 18 1 35 -5 39 -5 3 -10 15 -10 26 0
17 8 19 90 19 l90 0 0 -55z m-6470 -2053 c0 -4 -15 -12 -32 -17 -51 -15 -48
-45 6 -74 l45 -25 -34 -23 c-38 -26 -67 -29 -83 -10 -5 6 -21 40 -35 74 l-26
63 22 5 c12 2 31 6 42 8 36 8 95 7 95 -1z"/>
</g>
</svg>
