<?xml version="1.0" standalone="no"?>
<!DOCTYPE svg PUBLIC "-//W3C//DTD SVG 20010904//EN"
 "http://www.w3.org/TR/2001/REC-SVG-20010904/DTD/svg10.dtd">
<svg version="1.0" xmlns="http://www.w3.org/2000/svg"
 width="600.000000pt" height="800.000000pt" viewBox="0 0 600.000000 800.000000"
 preserveAspectRatio="xMidYMid meet">
<metadata>
Created by potrace 1.16, written by Peter Selinger 2001-2019
</metadata>
<g transform="translate(0.000000,800.000000) scale(0.100000,-0.100000)"
fill="#000000" stroke="none">
<path d="M2570 7929 c0 -5 -15 -9 -32 -9 -71 -1 -263 -64 -289 -96 -6 -8 -20
-14 -30 -14 -13 0 -19 -7 -19 -22 0 -13 0 -50 0 -83 0 -33 2 -72 6 -87 3 -17
1 -28 -5 -28 -6 0 -11 -5 -11 -11 0 -5 8 -9 18 -8 21 3 169 -144 163 -162 -2
-8 2 -10 13 -6 23 9 24 23 -27 -303 l-12 -75 -32 3 c-37 4 -40 0 -48 -67 -7
-59 4 -81 41 -81 39 0 27 -19 -13 -22 -37 -3 -38 -4 -43 -50 -7 -61 3 -80 38
-72 l27 5 -25 -21 c-33 -30 -105 -23 -131 11 -10 13 -21 20 -25 16 -24 -23
106 -100 137 -81 8 4 9 -1 4 -16 -4 -12 -10 -46 -14 -74 -8 -55 -44 -127 -80
-160 -12 -11 -21 -26 -21 -34 0 -12 6 -10 25 8 l25 24 -6 -47 c-8 -53 -4 -57
26 -25 11 12 20 17 20 10 0 -17 -93 -83 -200 -142 -103 -57 -169 -100 -188
-122 -9 -11 -23 -12 -72 -4 -63 10 -133 1 -230 -29 -25 -8 -136 -21 -248 -30
l-203 -16 -20 25 c-29 37 -89 36 -118 0 -12 -15 -21 -33 -21 -40 0 -23 -16
-24 -89 -8 -66 15 -77 15 -136 0 -35 -9 -78 -16 -94 -16 -16 0 -33 -4 -36 -10
-3 -5 -17 -10 -31 -10 -13 0 -24 -6 -24 -13 0 -7 -14 -26 -31 -43 -24 -23 -30
-36 -27 -61 2 -19 -1 -33 -7 -34 -178 -12 -238 -30 -311 -93 l-37 -32 13 -82
c8 -46 19 -87 25 -92 6 -5 39 -5 80 0 39 5 91 11 116 14 l46 5 -23 -57 c-13
-31 -24 -63 -24 -69 0 -7 -11 -13 -24 -13 -39 0 -74 -17 -81 -40 -9 -27 19
-70 45 -70 18 0 18 -3 6 -37 -7 -21 -19 -67 -26 -103 l-13 -65 -79 -57 c-71
-52 -78 -61 -78 -91 0 -37 37 -87 65 -87 9 0 37 16 62 35 25 19 47 34 49 32 2
-1 9 -34 17 -72 18 -84 73 -187 126 -235 22 -19 65 -48 98 -65 32 -16 75 -41
95 -55 l37 -25 1 -126 0 -127 -99 -4 c-129 -5 -141 -14 -141 -107 0 -36 4 -71
8 -77 12 -19 62 -23 78 -7 9 10 24 13 40 9 23 -6 25 -10 17 -39 -11 -45 -7
-204 7 -256 16 -61 3 -70 -54 -38 -31 17 -48 22 -53 14 -3 -6 2 -16 13 -23 49
-33 54 -43 10 -20 -44 24 -66 26 -66 7 0 -4 18 -17 40 -30 22 -12 40 -26 40
-31 0 -5 -13 -16 -30 -25 -43 -22 -51 -44 -40 -104 9 -47 8 -51 -21 -82 l-30
-32 -35 16 c-19 10 -41 17 -49 17 -20 0 -19 -19 0 -26 8 -4 15 -12 15 -20 0
-7 11 -16 25 -20 30 -8 31 -15 5 -32 -37 -23 -41 -55 -19 -129 12 -38 28 -77
38 -87 23 -26 90 -56 128 -56 24 0 31 -4 27 -14 -3 -8 4 -47 16 -88 33 -116
93 -158 226 -158 74 0 144 20 205 59 l47 29 16 -36 c22 -52 39 -100 115 -320
36 -106 76 -204 88 -218 12 -14 33 -24 48 -24 l27 0 -7 68 c-4 37 -15 136 -26
220 -19 152 -25 368 -11 387 7 11 68 11 113 0 39 -10 69 33 69 97 0 44 -4 54
-35 85 -20 20 -39 33 -43 29 -4 -4 3 -15 15 -24 36 -27 48 -74 29 -111 -14
-26 -22 -30 -52 -29 -25 1 -45 10 -65 30 -47 47 -39 97 29 201 25 37 25 37 44
17 10 -11 24 -20 31 -20 38 0 89 72 117 165 10 34 27 51 108 112 54 39 142 97
197 128 145 83 193 114 199 130 3 8 -15 44 -40 80 -53 80 -57 101 -9 55 31
-30 38 -33 62 -24 16 5 29 18 31 29 1 11 5 30 7 42 l5 21 41 -20 c30 -14 44
-17 52 -9 21 21 26 10 11 -26 -8 -21 -18 -45 -23 -54 -10 -17 -8 -95 2 -105 4
-4 12 -2 20 4 21 17 35 -54 42 -213 3 -77 9 -161 14 -187 7 -45 7 -46 -19 -51
-14 -3 -36 -14 -49 -24 l-22 -18 21 -87 c22 -89 111 -268 134 -268 14 0 96
-254 96 -299 0 -22 -13 -54 -37 -92 -75 -115 -83 -131 -83 -153 0 -13 -6 -29
-14 -35 -13 -11 -21 -42 -32 -121 -2 -19 -8 -62 -13 -95 -5 -33 -12 -119 -15
-192 -7 -140 -24 -200 -67 -239 -41 -37 -53 -74 -51 -163 1 -47 8 -105 16
-130 19 -61 27 -143 27 -290 0 -119 -1 -124 -30 -168 -57 -86 -51 -204 14
-299 54 -78 78 -96 133 -102 44 -4 53 -1 84 26 67 59 85 181 46 307 -19 62
-21 90 -19 249 l2 179 29 30 c39 40 90 164 90 219 0 27 -9 59 -24 85 -22 38
-24 49 -16 100 4 32 22 92 39 133 17 41 31 80 31 86 0 12 45 130 60 156 6 10
10 27 10 37 0 11 4 22 9 25 13 8 41 100 41 134 0 43 36 139 64 173 45 53 49
92 40 359 -5 135 -7 297 -5 361 2 74 0 119 -7 123 -6 4 -7 18 -2 39 4 17 13
86 20 152 17 174 15 168 53 160 67 -13 64 -9 71 -109 3 -52 4 -100 1 -107 -10
-26 -27 -213 -30 -324 -2 -60 -6 -128 -10 -150 -19 -121 -24 -302 -9 -395 13
-85 13 -104 -1 -180 -16 -91 -34 -233 -60 -475 -9 -82 -27 -222 -40 -309 -14
-88 -25 -170 -25 -183 0 -15 -8 -27 -22 -32 -34 -13 -68 -49 -84 -87 -19 -46
-18 -220 1 -254 24 -42 17 -84 -44 -268 -32 -97 -69 -219 -82 -270 -22 -91
-25 -94 -87 -155 -35 -34 -70 -76 -78 -94 -55 -128 53 -231 212 -202 69 12
155 64 185 112 17 28 19 44 15 122 -2 50 -2 77 1 60 5 -32 18 -45 45 -45 25 0
219 189 239 235 15 33 19 67 19 191 0 149 0 152 -22 158 -18 4 -32 -4 -66 -39
-43 -45 -62 -55 -62 -33 0 6 -9 21 -19 32 -19 20 -26 49 -23 92 1 12 15 26 36
37 48 22 79 70 104 157 30 103 29 137 -8 187 l-31 42 47 133 c75 215 103 297
142 413 l36 110 2 256 c1 148 7 281 14 315 18 90 53 194 65 194 6 0 21 17 33
38 12 20 22 31 22 25 1 -53 122 104 163 210 25 67 25 69 7 87 -21 21 -82 36
-101 24 -9 -5 -10 -2 -6 10 13 33 48 190 54 240 4 28 8 45 11 38 2 -6 13 -12
25 -12 32 0 42 -11 45 -50 2 -19 5 -47 8 -63 4 -19 1 -29 -11 -33 -21 -8 -15
-47 18 -119 16 -35 38 -136 70 -330 125 -750 117 -708 143 -732 33 -30 59 -29
91 3 24 24 25 30 19 87 -14 123 -88 600 -97 626 -7 16 -7 22 -1 16 14 -14 57
-154 75 -245 36 -173 39 -203 35 -285 -4 -78 -3 -88 16 -101 27 -18 114 -18
159 1 20 8 38 15 40 15 3 0 7 -26 11 -59 5 -42 13 -64 29 -78 34 -31 44 -34
70 -22 43 19 51 49 41 139 l-10 80 124 66 c68 36 126 63 128 61 2 -2 15 -71
29 -153 20 -122 28 -152 46 -166 28 -23 50 -23 83 3 35 28 35 42 -8 357 l-5
32 150 75 c175 87 331 199 380 273 18 26 33 48 34 50 2 2 23 -7 48 -19 43 -21
47 -21 70 -6 45 29 97 210 97 336 0 46 -6 66 -30 104 -22 35 -30 60 -30 92 0
56 -17 137 -42 194 -17 41 -18 47 -3 99 9 30 14 65 11 78 -9 33 -62 91 -91 98
-18 5 -27 17 -35 46 -6 22 -19 60 -30 85 l-19 44 55 25 c31 14 109 62 174 106
66 44 121 80 124 80 12 0 97 -63 105 -78 5 -9 20 -69 35 -132 46 -199 50 -212
64 -218 8 -3 48 2 90 11 65 15 82 23 119 59 27 27 43 51 43 66 0 13 -30 110
-66 216 -90 262 -88 254 -73 284 8 13 24 28 36 33 18 6 23 16 23 41 -1 71 -41
274 -100 506 -57 225 -61 244 -46 261 40 44 4 122 -57 126 -10 0 -67 169 -67
199 0 13 -14 57 -31 97 -17 41 -34 85 -39 99 -14 43 -41 90 -52 90 -30 0 -67
42 -78 92 -7 29 -22 71 -33 93 -23 47 -132 209 -151 224 -10 9 -35 5 -94 -14
-45 -14 -84 -30 -87 -36 -4 -5 2 -40 13 -77 12 -37 28 -96 37 -132 9 -36 18
-73 21 -83 6 -18 4 -18 -18 -3 -14 9 -58 24 -98 35 -77 19 -81 22 -105 84 -14
35 -18 37 -58 37 -23 -1 -67 -9 -97 -20 -30 -10 -58 -16 -61 -12 -4 4 -34 77
-68 162 -34 85 -70 161 -79 168 -35 27 -109 4 -129 -41 -13 -28 -6 -51 77
-251 22 -54 39 -100 38 -101 -7 -5 -121 -45 -122 -43 -20 49 -61 116 -75 125
-21 13 -233 77 -293 88 -27 5 -35 11 -31 23 2 10 -12 51 -31 93 -28 63 -40 78
-66 87 -20 8 -35 22 -45 45 -18 44 -34 56 -92 71 -39 10 -51 18 -66 46 -12 24
-16 47 -12 71 5 26 2 39 -10 49 -10 8 -12 17 -6 24 10 12 31 137 25 148 -4 6
-122 24 -136 20 -4 -1 -24 31 -44 70 -20 40 -48 88 -62 105 -21 29 -23 35 -11
50 45 57 66 70 126 81 132 23 264 114 279 192 4 16 10 30 14 30 14 0 -56 133
-97 185 -22 28 -38 56 -35 63 2 7 -5 12 -15 12 -11 0 -67 28 -124 63 -58 35
-141 76 -184 91 -44 16 -85 35 -92 44 -7 8 -19 12 -27 9 -8 -3 -30 -2 -48 4
-100 29 -297 60 -408 65 -69 2 -140 7 -157 9 -18 2 -33 0 -33 -6z m230 -802
c-113 -90 -149 -109 -207 -111 -25 -1 -32 3 -28 14 2 8 7 29 10 45 15 70 6 65
128 65 90 -1 109 -3 97 -13z m-370 -809 c7 -29 19 -66 27 -81 14 -29 14 -30
-63 -110 -43 -45 -82 -86 -87 -92 -6 -6 -7 -2 -4 10 3 11 22 83 43 160 48 184
63 204 84 113z m-193 -177 l-12 -85 -60 -13 c-169 -37 -211 -47 -227 -55 -39
-19 -17 22 35 65 92 78 272 199 274 185 2 -7 -3 -51 -10 -97z m-940 -1744 c-7
-19 -19 -140 -15 -152 3 -11 -69 -23 -149 -24 l-53 -1 0 58 c0 39 6 67 20 89
19 32 21 32 102 36 46 1 87 4 92 5 4 1 6 -4 3 -11z m2346 -757 c52 -31 94 -41
124 -29 22 8 30 6 54 -17 l28 -27 -24 -23 c-14 -13 -25 -28 -25 -34 0 -11
-119 -14 -157 -4 -19 5 -23 13 -23 48 0 23 -4 56 -9 74 -5 17 -8 32 -6 32 2 0
19 -9 38 -20z"/>
</g>
</svg>
