<?xml version="1.0" standalone="no"?>
<!DOCTYPE svg PUBLIC "-//W3C//DTD SVG 20010904//EN"
 "http://www.w3.org/TR/2001/REC-SVG-20010904/DTD/svg10.dtd">
<svg version="1.0" xmlns="http://www.w3.org/2000/svg"
 width="897.000000pt" height="1074.000000pt" viewBox="0 0 897.000000 1074.000000"
 preserveAspectRatio="xMidYMid meet">
<metadata>
Created by potrace 1.16, written by Peter Selinger 2001-2019
</metadata>
<g transform="translate(0.000000,1074.000000) scale(0.100000,-0.100000)"
fill="#000000" stroke="none">
<path d="M3665 10723 c4 -10 9 -61 12 -113 6 -93 5 -95 -13 -78 -29 26 -205
108 -244 114 -33 5 -37 3 -64 -43 -17 -26 -44 -65 -62 -85 -56 -63 -68 -95
-56 -148 25 -106 25 -105 7 -90 -46 38 -125 270 -125 368 0 29 -4 42 -14 42
-24 0 -102 -96 -142 -174 -36 -69 -37 -76 -24 -100 28 -53 106 -140 152 -170
26 -17 47 -34 47 -37 1 -3 -35 -24 -79 -48 -44 -23 -80 -46 -80 -49 0 -4 -21
-37 -47 -73 -27 -36 -61 -92 -77 -126 l-28 -60 -132 -6 c-213 -10 -412 -26
-552 -43 l-131 -16 -99 39 c-117 47 -170 60 -284 72 -164 16 -273 -4 -397 -73
-44 -24 -54 -35 -72 -84 -41 -106 -55 -314 -31 -457 15 -92 46 -212 65 -257
22 -54 54 -208 43 -208 -5 0 -49 14 -96 31 -80 28 -100 31 -247 35 -159 5
-161 5 -245 -25 l-85 -31 -80 39 c-123 60 -346 154 -352 148 -2 -3 11 -31 31
-61 20 -31 36 -59 36 -61 0 -3 -14 2 -32 11 -21 11 -33 13 -36 6 -2 -6 -9 -9
-17 -6 -8 3 -16 -4 -20 -17 -9 -28 19 -54 78 -70 l42 -12 -30 -9 c-64 -21
-185 -82 -182 -92 2 -6 89 -49 194 -96 l190 -84 -19 -64 c-18 -60 -18 -66 -4
-81 15 -15 19 -15 46 1 l30 17 0 -39 c0 -38 2 -40 30 -40 31 0 43 10 83 70
l23 35 114 8 c177 12 255 5 322 -28 52 -26 57 -31 51 -54 -4 -14 -7 -47 -7
-74 0 -40 5 -52 35 -83 40 -42 85 -64 132 -64 19 0 51 -7 70 -15 36 -15 89
-20 99 -10 3 3 47 7 98 9 79 4 99 1 136 -17 24 -11 44 -27 44 -34 0 -7 10 -18
22 -24 30 -13 34 -59 7 -66 -28 -8 -23 -20 14 -39 l32 -17 -39 -11 c-22 -6
-41 -16 -43 -21 -1 -6 104 -63 235 -127 199 -99 247 -119 297 -123 108 -11
123 -15 129 -39 3 -13 24 -36 46 -51 22 -15 37 -32 33 -39 -3 -6 -15 -23 -25
-38 -15 -21 -17 -32 -9 -47 17 -32 154 -132 283 -206 l67 -39 -85 -45 c-90
-49 -167 -110 -210 -166 -14 -19 -63 -124 -109 -232 l-82 -198 -53 -2 c-37 -1
-56 -6 -62 -17 -6 -10 -23 -16 -48 -16 -21 0 -54 -9 -72 -19 -18 -11 -60 -25
-92 -31 -37 -8 -68 -21 -82 -36 -14 -13 -53 -31 -92 -41 -55 -15 -68 -22 -70
-41 -2 -13 3 -24 12 -28 13 -5 95 7 146 22 10 3 16 -3 16 -16 0 -15 -13 -23
-61 -38 -52 -15 -60 -21 -60 -42 0 -21 4 -25 30 -24 17 1 45 5 63 9 27 6 31 5
26 -9 -4 -11 21 -42 90 -107 l95 -91 -21 -42 c-11 -22 -42 -75 -68 -116 -69
-110 -146 -249 -166 -298 -16 -42 -16 -43 10 -96 16 -32 50 -76 80 -104 68
-61 234 -174 349 -236 60 -32 92 -56 102 -77 9 -16 20 -29 25 -29 5 0 12 -17
16 -38 3 -20 16 -46 29 -57 24 -20 26 -26 141 -475 31 -119 41 -258 25 -339
-7 -37 -46 -130 -101 -243 -91 -188 -167 -396 -194 -528 -8 -41 -20 -137 -26
-212 -14 -155 -6 -268 36 -548 14 -91 33 -232 44 -315 11 -82 30 -214 42 -292
l21 -141 -34 -35 c-60 -61 -79 -93 -79 -134 0 -41 33 -171 80 -321 39 -119 38
-166 0 -242 -16 -33 -30 -66 -30 -74 0 -8 -15 -33 -34 -55 -25 -29 -37 -55
-41 -89 -3 -26 -8 -55 -9 -64 -2 -10 1 -73 6 -140 8 -95 16 -133 34 -170 13
-25 27 -48 32 -50 4 -1 33 -48 65 -104 139 -248 215 -310 412 -334 99 -12 139
-7 214 28 47 21 56 31 80 81 37 79 36 186 -2 293 -15 43 -26 90 -25 105 2 33
-40 110 -85 155 -32 31 -43 60 -104 273 -29 103 -32 74 39 432 l42 211 -29 42
c-33 48 -105 123 -152 160 l-32 25 -4 130 c-6 213 11 637 32 800 18 136 53
303 169 795 53 225 76 296 128 402 24 50 44 98 44 105 0 10 10 8 40 -7 70 -36
108 -28 234 47 63 38 134 89 165 121 l54 55 -7 -60 c-10 -89 8 -130 74 -170
49 -30 61 -33 136 -33 l82 0 79 59 c44 32 126 100 184 151 79 72 105 101 109
124 4 21 10 30 21 28 19 -3 85 67 100 104 5 14 14 82 20 151 15 161 4 217 -52
278 -42 45 -90 65 -158 65 -29 0 -41 4 -41 14 0 8 -16 31 -35 52 -19 20 -35
38 -35 39 0 1 35 19 78 40 57 29 98 59 159 120 125 125 139 172 109 368 -8 50
-17 173 -21 272 -3 99 -9 196 -14 216 -6 29 -5 38 8 46 14 8 16 4 17 -31 1
-23 16 -84 33 -136 17 -52 28 -105 25 -116 -4 -15 2 -27 20 -42 14 -11 26 -25
26 -31 0 -6 13 -26 29 -44 16 -17 43 -48 59 -67 l30 -35 184 0 c159 0 187 2
211 18 18 12 46 57 83 133 45 93 59 114 73 108 32 -13 108 -16 130 -4 12 6 32
13 43 15 12 3 24 8 27 13 3 5 26 22 51 37 25 15 66 46 92 67 40 33 50 37 68
28 26 -14 57 2 70 35 5 14 21 85 35 159 29 146 28 154 -22 207 -27 30 -24 34
28 44 34 6 38 4 59 -30 18 -29 21 -44 15 -80 -5 -39 -3 -48 19 -70 14 -14 26
-36 26 -49 0 -13 13 -34 30 -49 17 -15 30 -34 30 -42 0 -10 10 -15 31 -15 l30
0 -20 -26 c-21 -27 -29 -84 -12 -84 5 0 31 9 57 20 38 17 49 18 56 8 5 -7 78
-152 164 -323 85 -170 159 -312 163 -315 13 -8 45 -76 85 -177 20 -50 72 -171
116 -269 44 -98 80 -184 80 -192 0 -8 8 -26 19 -40 33 -48 140 -319 232 -590
50 -146 122 -352 161 -456 38 -105 74 -207 80 -226 5 -19 23 -53 39 -75 16
-22 89 -131 163 -241 73 -111 225 -325 338 -475 113 -151 224 -307 248 -348
23 -41 76 -125 116 -186 40 -61 76 -128 79 -149 5 -23 18 -45 36 -59 31 -24
234 -415 264 -509 10 -29 23 -60 30 -68 27 -34 215 -497 215 -533 1 -12 7 -33
15 -47 8 -14 14 -34 15 -45 0 -11 9 -37 20 -58 11 -20 20 -44 20 -52 0 -8 9
-24 21 -36 13 -13 18 -27 14 -39 -12 -37 5 -85 35 -102 19 -11 33 -30 41 -57
14 -48 37 -54 74 -16 21 20 25 34 25 80 0 52 1 55 24 55 38 0 40 15 9 82 -15
34 -27 70 -25 79 1 9 -2 27 -7 41 -7 18 -5 44 5 87 l14 62 -34 67 c-18 37 -52
119 -74 182 -62 175 -116 316 -156 408 -20 46 -36 90 -36 97 0 8 -12 31 -26
52 -14 21 -55 95 -90 166 -35 70 -84 157 -107 195 -70 109 -58 82 -957 2202
-92 217 -270 636 -395 930 -201 473 -506 1191 -719 1694 l-72 169 22 24 c26
28 49 103 39 132 -7 24 -149 214 -212 285 -25 27 -62 81 -83 120 l-39 71 77
76 c78 76 303 335 399 459 177 230 246 392 228 540 -23 183 -139 403 -296 558
-76 75 -142 122 -263 186 -48 25 -114 66 -145 91 -72 58 -243 146 -357 184
-103 35 -290 74 -451 95 -62 8 -116 17 -121 20 -5 3 -12 25 -14 48 -4 30 -23
70 -62 131 l-56 87 57 0 c135 0 300 -38 408 -93 91 -46 184 -143 188 -197 1
-11 7 -20 14 -20 18 0 17 64 -3 130 -21 71 -95 144 -187 185 -36 17 -67 32
-67 35 0 3 30 21 67 40 37 19 69 41 71 48 2 7 -16 2 -46 -13 -62 -31 -193 -52
-384 -61 l-146 -6 -40 63 c-81 128 -98 149 -146 179 -71 45 -86 38 -71 -35 2
-11 6 -35 9 -54 3 -18 19 -63 36 -98 l30 -65 -28 6 c-15 3 -88 17 -162 31
-200 39 -469 118 -622 184 -47 20 -47 21 -37 51 6 17 8 41 5 55 -8 33 -120
179 -160 210 -39 30 -61 33 -51 8z m450 -709 c55 -23 195 -101 195 -110 0 -2
-49 -4 -108 -4 l-108 0 -21 43 c-12 23 -32 57 -44 76 l-23 33 25 -7 c13 -4 51
-18 84 -31z m360 -274 c18 -35 21 -212 4 -292 -15 -70 -71 -191 -104 -224 -32
-32 -28 -40 11 -20 16 8 51 25 77 37 53 23 118 100 144 166 l14 38 -5 -63 c-5
-69 -39 -141 -81 -168 -27 -17 -33 -34 -13 -34 21 0 117 107 127 142 8 30 9
27 10 -29 1 -35 5 -63 10 -63 14 0 25 103 17 153 -4 23 -9 74 -12 112 -5 80
-25 168 -54 232 l-19 44 26 -3 c32 -4 154 -137 229 -250 73 -109 99 -179 99
-265 0 -40 1 -73 2 -73 3 0 47 44 66 67 11 12 25 39 33 60 12 35 13 36 14 10
0 -15 11 -53 24 -85 36 -86 87 -315 111 -498 l6 -51 -58 -16 c-84 -23 -225
-40 -303 -35 -58 3 -75 9 -126 42 -99 66 -234 214 -329 361 -63 97 -125 278
-194 565 -16 69 -32 133 -36 142 -7 18 15 21 217 26 76 2 78 2 93 -28z m1010
-81 c165 -41 401 -115 478 -149 72 -32 288 -268 394 -433 59 -90 109 -198 129
-276 23 -90 16 -240 -13 -296 -43 -82 -187 -268 -295 -380 -104 -108 -265
-252 -272 -244 -2 2 -78 180 -169 394 -91 215 -219 518 -286 675 -67 157 -121
294 -121 303 0 10 -13 50 -30 89 -18 41 -30 88 -30 113 0 53 -31 154 -68 221
l-29 51 76 -14 c42 -8 148 -32 236 -54z m-2720 -16 c-7 -32 -40 -125 -73 -208
-33 -82 -64 -162 -67 -177 -7 -27 -8 -27 -32 22 -41 82 -217 257 -372 368 -24
18 -38 33 -30 33 75 7 314 16 435 17 l152 2 -13 -57z m2678 -758 c90 -214 226
-534 301 -710 134 -315 138 -327 101 -335 -18 -4 -96 -62 -101 -75 -9 -23 -43
-24 -104 -4 -51 18 -65 29 -120 96 l-62 75 -18 132 c-11 72 -26 201 -35 286
-9 85 -25 207 -36 270 -10 63 -19 134 -19 158 0 23 -9 70 -21 104 -11 34 -31
125 -45 202 -14 78 -29 157 -34 177 -6 20 -7 45 -4 54 6 14 9 12 19 -11 7 -16
87 -204 178 -419z m-219 -282 c3 -26 3 -49 -2 -52 -4 -3 -15 -28 -23 -56 -19
-61 -20 -61 -186 -6 l-115 38 54 11 c74 15 156 46 208 81 25 16 48 30 51 30 4
1 9 -20 13 -46z m-549 -237 c28 -50 70 -164 62 -172 -3 -3 -43 -14 -89 -24
-45 -10 -90 -21 -98 -24 -11 -4 -27 15 -56 64 l-42 69 20 40 c24 49 33 141 20
198 l-10 43 85 -77 c46 -42 95 -95 108 -117z m605 -224 c17 -96 19 -94 -50
-65 -48 21 -69 38 -102 82 -23 31 -66 82 -96 114 l-55 57 62 0 c75 0 114 16
167 71 l39 40 12 -122 c7 -67 17 -147 23 -177z m-312 129 c53 -44 109 -92 125
-108 l28 -30 -72 24 c-40 14 -91 28 -113 32 -40 6 -41 7 -63 76 -12 39 -27 78
-33 88 -10 16 -9 17 10 7 11 -6 64 -46 118 -89z m1468 -1727 c102 -242 241
-569 309 -729 67 -159 257 -605 420 -990 164 -385 341 -803 395 -930 122 -288
531 -1250 617 -1450 35 -82 67 -157 70 -165 4 -8 -20 21 -52 65 -81 113 -179
234 -344 424 -261 303 -441 551 -534 736 -25 50 -77 182 -116 295 -252 726
-418 1141 -662 1659 -27 57 -49 110 -49 118 0 8 -9 28 -21 44 -11 16 -60 111
-109 212 -49 100 -118 235 -154 301 l-66 118 25 71 24 71 -27 34 c-15 19 -38
49 -52 67 -71 92 -116 142 -150 169 -35 26 -37 31 -28 57 5 15 44 59 86 96 42
37 108 97 146 132 55 51 70 61 77 49 5 -8 92 -213 195 -454z"/>
</g>
</svg>
